<mxfile host="app.diagrams.net" modified="2022-07-10T20:26:36.772Z" agent="5.0 (X11)" etag="29r0NitJccAHQ89vRcWc" version="20.0.4" type="github">
  <diagram id="l5HfpWFaHAtyfRfRbP9f" name="Page-1">
    <mxGraphModel dx="866" dy="451" grid="1" gridSize="10" guides="1" tooltips="1" connect="1" arrows="1" fold="1" page="1" pageScale="1" pageWidth="850" pageHeight="1100" math="0" shadow="0">
      <root>
        <mxCell id="0" />
        <mxCell id="1" parent="0" />
        <mxCell id="aYM6xtdw5qeDzCKNdwKn-1" value="" style="shape=image;verticalLabelPosition=bottom;labelBackgroundColor=default;verticalAlign=top;aspect=fixed;imageAspect=0;image=data:image/svg+xml,PHN2ZyBoZWlnaHQ9IjEzNzcuNDIiIHdpZHRoPSIxNTIwIiB4bWxuczp4bGluaz0iaHR0cDovL3d3dy53My5vcmcvMTk5OS94bGluayIgeG1sbnM9Imh0dHA6Ly93d3cudzMub3JnLzIwMDAvc3ZnIiB2aWV3Qm94PSIwIDAgMTUyMCAxMzc3LjQyIj48ZyB0cmFuc2Zvcm09InRyYW5zbGF0ZSgtMTAwIC0yLjU4MjY3NzE2NTM1NDQyNTYpIj48cGF0aCBmaWxsPSIjZmZmIiBkPSJNMCAwaDE4NzAuODd2MjU4MS42N0gweiIvPjxwYXRoIGZpbGwtb3BhY2l0eT0iLjIiIGZpbGw9IiNiMzkxYjUiIHN0cm9rZT0iIzVlNWU1ZSIgZD0iTTMyMCA5MDMuNDJhNiA2IDAgMCAxIDYtNmg4NDhhNiA2IDAgMCAxIDYgNlYxMzU0YTYgNiAwIDAgMS02IDZIMzI2YTYgNiAwIDAgMS02LTZ6Ii8+PHBhdGggZmlsbC1vcGFjaXR5PSIuMiIgZmlsbD0iIzAxOTI4MSIgc3Ryb2tlPSIjNWU1ZTVlIiBkPSJNMzIwIDcyOC44M2E2IDYgMCAwIDEgNi02aDY0OGE2IDYgMCAwIDEgNiA2Vjg3NGE2IDYgMCAwIDEtNiA2SDMyNmE2IDYgMCAwIDEtNi02eiIvPjxwYXRoIGZpbGwtb3BhY2l0eT0iLjIiIGZpbGw9IiNiMmIyYjIiIHN0cm9rZT0iIzVlNWU1ZSIgZD0iTTc4MCAyMTIuMDhhNiA2IDAgMCAxIDYtNmgzODhhNiA2IDAgMCAxIDYgNlY2OTRhNiA2IDAgMCAxLTYgNkg3ODZhNiA2IDAgMCAxLTYtNnpNMTIwIDIxMS40MmE2IDYgMCAwIDEgNi02aDYyOGE2IDYgMCAwIDEgNiA2VjY5NGE2IDYgMCAwIDEtNiA2SDEyNmE2IDYgMCAwIDEtNi02eiIvPjxwYXRoIGZpbGwtb3BhY2l0eT0iLjIiIGZpbGw9IiNmZmMzNzQiIHN0cm9rZT0iIzVlNWU1ZSIgZD0iTTMyMCAyOC41OGE2IDYgMCAwIDEgNi02aDEyNDhhNiA2IDAgMCAxIDYgNnYxNDhhNiA2IDAgMCAxLTYgNkgzMjZhNiA2IDAgMCAxLTYtNnoiLz48cGF0aCBmaWxsPSIjZmZmIiBzdHJva2Utd2lkdGg9IjMiIHN0cm9rZT0iIzVlNWU1ZSIgZD0iTTUwMCAxNDhjMCA2LjYzLTI2Ljg2IDEyLTYwIDEycy02MC01LjM3LTYwLTEyVjUyYzAtNi42MyAyNi44Ni0xMiA2MC0xMnM2MCA1LjM3IDYwIDEyeiIvPjxwYXRoIGZpbGw9Im5vbmUiIHN0cm9rZS13aWR0aD0iMyIgc3Ryb2tlPSIjNWU1ZTVlIiBkPSJNNTAwIDUyYzAgNi42My0yNi44NiAxMi02MCAxMnMtNjAtNS4zNy02MC0xMiIvPjx1c2UgdHJhbnNmb3JtPSJtYXRyaXgoMSwwLDAsMSwzODUsNjkpIHRyYW5zbGF0ZSgyNC43ODM5NTA2MTcyODM5NTYgMzMuOTAyNzc3Nzc3Nzc3NzgpIiB4bGluazpocmVmPSIjYSIvPjx1c2UgdHJhbnNmb3JtPSJtYXRyaXgoMSwwLDAsMSwzODUsNjkpIHRyYW5zbGF0ZSgxMCA2MC41Njk0NDQ0NDQ0NDQ0NSkiIHhsaW5rOmhyZWY9IiNiIi8+PHBhdGggZmlsbD0iI2ZmZiIgc3Ryb2tlLXdpZHRoPSIzIiBzdHJva2U9IiM1ZTVlNWUiIGQ9Ik05NDAgMTQ4YzAgNi42My0yNi44NiAxMi02MCAxMnMtNjAtNS4zNy02MC0xMlY1MmMwLTYuNjMgMjYuODYtMTIgNjAtMTJzNjAgNS4zNyA2MCAxMnoiLz48cGF0aCBmaWxsPSJub25lIiBzdHJva2Utd2lkdGg9IjMiIHN0cm9rZT0iIzVlNWU1ZSIgZD0iTTk0MCA1MmMwIDYuNjMtMjYuODYgMTItNjAgMTJzLTYwLTUuMzctNjAtMTIiLz48dXNlIHRyYW5zZm9ybT0ibWF0cml4KDEsMCwwLDEsODI1LDY5KSB0cmFuc2xhdGUoLTEuMTExMTExMTExMTExMTIxNCAzNC4xMTExMTExMTExMTExMTQpIiB4bGluazpocmVmPSIjYyIvPjx1c2UgdHJhbnNmb3JtPSJtYXRyaXgoMSwwLDAsMSw4MjUsNjkpIHRyYW5zbGF0ZSgxMCA2MC43Nzc3Nzc3Nzc3Nzc3OCkiIHhsaW5rOmhyZWY9IiNiIi8+PHBhdGggZmlsbD0iI2ZmZiIgc3Ryb2tlLXdpZHRoPSIzIiBzdHJva2U9IiM1ZTVlNWUiIGQ9Ik0xNDAgMzg4LjA1YTYgNiAwIDAgMSA2LTZoMTY4YTYgNiAwIDAgMSA2IDZ2MTA4YTYgNiAwIDAgMS02IDZIMTQ2YTYgNiAwIDAgMS02LTZ6Ii8+PHVzZSB0cmFuc2Zvcm09Im1hdHJpeCgxLDAsMCwxLDE1MS45OTk5OTk5NzQzNTkzNSwzOTQuMDQ3MzIwNDEwNDkwMzMpIHRyYW5zbGF0ZSg5LjQyNTkyNTkyNTkyNTkyNCAzOC43Nzc3Nzc3Nzc3Nzc3OCkiIHhsaW5rOmhyZWY9IiNkIi8+PHVzZSB0cmFuc2Zvcm09Im1hdHJpeCgxLDAsMCwxLDE1MS45OTk5OTk5NzQzNTkzNSwzOTQuMDQ3MzIwNDEwNDkwMzMpIHRyYW5zbGF0ZSg3Ni4wMzA4NjQxOTc1MzA4NSAzOC43Nzc3Nzc3Nzc3Nzc3OCkiIHhsaW5rOmhyZWY9IiNlIi8+PHVzZSB0cmFuc2Zvcm09Im1hdHJpeCgxLDAsMCwxLDE1MS45OTk5OTk5NzQzNTkzNSwzOTQuMDQ3MzIwNDEwNDkwMzMpIHRyYW5zbGF0ZSgyMy4wMDYxNzI4Mzk1MDYxNyA2NS40NDQ0NDQ0NDQ0NDQ0NikiIHhsaW5rOmhyZWY9IiNmIi8+PHBhdGggZmlsbD0iI2ZmZiIgc3Ryb2tlLXdpZHRoPSIzIiBzdHJva2U9IiM1ZTVlNWUiIGQ9Ik0zODkuMTggMjQ1LjNBMTAgMTAgMCAwIDEgMzk4IDI0MGg4NGExMCAxMCAwIDAgMSA4LjgyIDUuM2wyNi4zNiA0OS40YTExLjI1IDExLjI1IDAgMCAxIDAgMTAuNmwtMjYuMzYgNDkuNEExMCAxMCAwIDAgMSA0ODIgMzYwaC04NGExMCAxMCAwIDAgMS04LjgyLTUuM2wtMjYuMzYtNDkuNGExMS4yNSAxMS4yNSAwIDAgMSAwLTEwLjZ6Ii8+PHVzZSB0cmFuc2Zvcm09Im1hdHJpeCgxLDAsMCwxLDM2NC45OTk5OTk5NzQzNTkzNSwyNDUpIHRyYW5zbGF0ZSgxMi42MDM3NjU0MzIwOTg3NjMgNTkuMDI3Nzc3Nzc3Nzc3NzgpIiB4bGluazpocmVmPSIjZCIvPjx1c2UgdHJhbnNmb3JtPSJtYXRyaXgoMSwwLDAsMSwzNjQuOTk5OTk5OTc0MzU5MzUsMjQ1KSB0cmFuc2xhdGUoNzkuMjA4NzAzNzAzNzAzNjkgNTkuMDI3Nzc3Nzc3Nzc3NzgpIiB4bGluazpocmVmPSIjZyIvPjxwYXRoIGZpbGw9Im5vbmUiIHN0cm9rZS13aWR0aD0iMiIgc3Ryb2tlPSIjNWU1ZTVlIiBkPSJNNDQwIDE2Mi41djU3LjUzIi8+PHBhdGggZmlsbD0iIzVlNWU1ZSIgc3Ryb2tlLXdpZHRoPSIuMDUiIHN0cm9rZT0iIzVlNWU1ZSIgZD0iTTQ0MCAxNjEuNWwxLS4wM3YxLjA2aC0ydi0xLjA3eiIvPjxwYXRoIGZpbGw9IiM1ZTVlNWUiIHN0cm9rZS13aWR0aD0iMiIgc3Ryb2tlPSIjNWU1ZTVlIiBkPSJNNDQwIDIzNS4zbC00LjY0LTE0LjI3aDkuMjh6Ii8+PHBhdGggZmlsbD0ibm9uZSIgc3Ryb2tlLXdpZHRoPSIyIiBzdHJva2U9IiM1ZTVlNWUiIGQ9Ik0zNTkgMzAwSDIzNmE2IDYgMCAwIDAtNiA2djU2LjA4Ii8+PHBhdGggZmlsbD0iIzVlNWU1ZSIgc3Ryb2tlLXdpZHRoPSIuMDUiIHN0cm9rZT0iIzVlNWU1ZSIgZD0iTTM2MCAzMDBsLjA1IDFoLTEuMDh2LTJoMS4wOHoiLz48cGF0aCBmaWxsPSIjNWU1ZTVlIiBzdHJva2Utd2lkdGg9IjIiIHN0cm9rZT0iIzVlNWU1ZSIgZD0iTTIzMCAzNzcuMzVsLTQuNjQtMTQuMjdoOS4yOHoiLz48cGF0aCBmaWxsPSJub25lIiBzdHJva2Utd2lkdGg9IjIiIHN0cm9rZT0iIzVlNWU1ZSIgZD0iTTUyMSAzMDBoMTMzYTYgNiAwIDAgMSA2IDZ2NTcuMDMiLz48cGF0aCBmaWxsPSIjNWU1ZTVlIiBzdHJva2Utd2lkdGg9Ii4wNSIgc3Ryb2tlPSIjNWU1ZTVlIiBkPSJNNTIxLjAzIDMwMWgtMS4wOGwuMDUtMS0uMDUtMWgxLjA4eiIvPjxwYXRoIGZpbGw9IiM1ZTVlNWUiIHN0cm9rZS13aWR0aD0iMiIgc3Ryb2tlPSIjNWU1ZTVlIiBkPSJNNjYwIDM3OC4zbC00LjY0LTE0LjI3aDkuMjh6Ii8+PHBhdGggZmlsbD0ibm9uZSIgc3Ryb2tlLXdpZHRoPSIyIiBzdHJva2U9IiM1ZTVlNWUiIGQ9Ik02NjAgNTA1LjQ2djM3LjAzIi8+PHBhdGggZmlsbD0iIzVlNWU1ZSIgc3Ryb2tlLXdpZHRoPSIuMDUiIHN0cm9rZT0iIzVlNWU1ZSIgZD0iTTY2MSA1MDUuNWgtMnYtMS4wNGgyeiIvPjxwYXRoIGZpbGw9IiM1ZTVlNWUiIHN0cm9rZS13aWR0aD0iMiIgc3Ryb2tlPSIjNWU1ZTVlIiBkPSJNNjYwIDU1Ny43NmwtNC42NC0xNC4yN2g5LjI4eiIvPjxwYXRoIGZpbGw9Im5vbmUiIHN0cm9rZS13aWR0aD0iMiIgc3Ryb2tlPSIjNWU1ZTVlIiBkPSJNODgwIDE2Mi41djU3LjUzIi8+PHBhdGggZmlsbD0iIzVlNWU1ZSIgc3Ryb2tlLXdpZHRoPSIuMDUiIHN0cm9rZT0iIzVlNWU1ZSIgZD0iTTg4MCAxNjEuNWwxLS4wM3YxLjA2aC0ydi0xLjA3eiIvPjxwYXRoIGZpbGw9IiM1ZTVlNWUiIHN0cm9rZS13aWR0aD0iMiIgc3Ryb2tlPSIjNWU1ZTVlIiBkPSJNODgwIDIzNS4zbC00LjY0LTE0LjI3aDkuMjh6Ii8+PHBhdGggZmlsbD0iI2ZmZiIgc3Ryb2tlLXdpZHRoPSIzIiBzdHJva2U9IiM1ZTVlNWUiIGQ9Ik0zNjAgMzg5YTYgNiAwIDAgMSA2LTZoMTY4YTYgNiAwIDAgMSA2IDZ2MTA4LjRhNiA2IDAgMCAxLTYgNkgzNjZhNiA2IDAgMCAxLTYtNnoiLz48dXNlIHRyYW5zZm9ybT0ibWF0cml4KDEsMCwwLDEsMzcyLDM5NSkgdHJhbnNsYXRlKDkuNDI1OTI1OTI1OTI1OTI0IDI2Ljg3MTUyNzc3Nzc3Nzc4KSIgeGxpbms6aHJlZj0iI2QiLz48dXNlIHRyYW5zZm9ybT0ibWF0cml4KDEsMCwwLDEsMzcyLDM5NSkgdHJhbnNsYXRlKDc2LjAzMDg2NDE5NzUzMDg1IDI2Ljg3MTUyNzc3Nzc3Nzc4KSIgeGxpbms6aHJlZj0iI2giLz48dXNlIHRyYW5zZm9ybT0ibWF0cml4KDEsMCwwLDEsMzcyLDM5NSkgdHJhbnNsYXRlKDMyLjMyNzE2MDQ5MzgyNzE2IDUzLjUzODE5NDQ0NDQ0NDQ1KSIgeGxpbms6aHJlZj0iI2kiLz48dXNlIHRyYW5zZm9ybT0ibWF0cml4KDEsMCwwLDEsMzcyLDM5NSkgdHJhbnNsYXRlKDQ4LjkzMjA5ODc2NTQzMjEgODAuMjA0ODYxMTExMTExMTEpIiB4bGluazpocmVmPSIjaiIvPjxwYXRoIGZpbGw9IiNmZmYiIHN0cm9rZS13aWR0aD0iMyIgc3Ryb2tlPSIjNWU1ZTVlIiBkPSJNMTAwMCAzODkuNGE2IDYgMCAwIDEgNi02aDE0OGE2IDYgMCAwIDEgNiA2djEwOGE2IDYgMCAwIDEtNiA2aC0xNDhhNiA2IDAgMCAxLTYtNnoiLz48dXNlIHRyYW5zZm9ybT0ibWF0cml4KDEsMCwwLDEsMTAxMiwzOTUuNDEwNDkwMzA3ODY3NykgdHJhbnNsYXRlKDUuMDk4NzY1NDMyMDk4NzU5IDM4Ljc3Nzc3Nzc3Nzc3Nzc4KSIgeGxpbms6aHJlZj0iI2siLz48dXNlIHRyYW5zZm9ybT0ibWF0cml4KDEsMCwwLDEsMTAxMiwzOTUuNDEwNDkwMzA3ODY3NykgdHJhbnNsYXRlKDU5LjM1ODAyNDY5MTM1ODAyIDM4Ljc3Nzc3Nzc3Nzc3Nzc4KSIgeGxpbms6aHJlZj0iI2giLz48dXNlIHRyYW5zZm9ybT0ibWF0cml4KDEsMCwwLDEsMTAxMiwzOTUuNDEwNDkwMzA3ODY3NykgdHJhbnNsYXRlKDEyLjUwNjE3MjgzOTUwNjE3IDY1LjQ0NDQ0NDQ0NDQ0NDQ2KSIgeGxpbms6aHJlZj0iI2YiLz48cGF0aCBmaWxsPSIjZmZmIiBzdHJva2Utd2lkdGg9IjMiIHN0cm9rZT0iIzVlNWU1ZSIgZD0iTTgyOS4xOCAyNDUuM0ExMCAxMCAwIDAgMSA4MzggMjQwaDg0YTEwIDEwIDAgMCAxIDguODIgNS4zbDI2LjM2IDQ5LjRhMTEuMjUgMTEuMjUgMCAwIDEgMCAxMC42bC0yNi4zNiA0OS40QTEwIDEwIDAgMCAxIDkyMiAzNjBoLTg0YTEwIDEwIDAgMCAxLTguODItNS4zbC0yNi4zNi00OS40YTExLjI1IDExLjI1IDAgMCAxIDAtMTAuNnoiLz48dXNlIHRyYW5zZm9ybT0ibWF0cml4KDEsMCwwLDEsODA1LjAwMDAwMDAwMDAwMDIsMjQ1KSB0cmFuc2xhdGUoMTguNzc2NjA0OTM4MjcxNjAzIDU5LjAyNzc3Nzc3Nzc3Nzc4KSIgeGxpbms6aHJlZj0iI2siLz48dXNlIHRyYW5zZm9ybT0ibWF0cml4KDEsMCwwLDEsODA1LjAwMDAwMDAwMDAwMDIsMjQ1KSB0cmFuc2xhdGUoNzMuMDM1ODY0MTk3NTMwODYgNTkuMDI3Nzc3Nzc3Nzc3NzgpIiB4bGluazpocmVmPSIjZyIvPjxwYXRoIGZpbGw9Im5vbmUiIHN0cm9rZS13aWR0aD0iMiIgc3Ryb2tlPSIjNWU1ZTVlIiBkPSJNOTYxIDMwMGgxMTNhNiA2IDAgMCAxIDYgNnY1Ny40NSIvPjxwYXRoIGZpbGw9IiM1ZTVlNWUiIHN0cm9rZS13aWR0aD0iLjA1IiBzdHJva2U9IiM1ZTVlNWUiIGQ9Ik05NjEuMDMgMzAxaC0xLjA4bC4wNS0xLS4wNS0xaDEuMDh6Ii8+PHBhdGggZmlsbD0iIzVlNWU1ZSIgc3Ryb2tlLXdpZHRoPSIyIiBzdHJva2U9IiM1ZTVlNWUiIGQ9Ik0xMDgwIDM3OC43bC00LjY0LTE0LjI1aDkuMjh6Ii8+PHBhdGggZmlsbD0iI2ZmZiIgc3Ryb2tlLXdpZHRoPSIzIiBzdHJva2U9IiM1ZTVlNWUiIGQ9Ik04MDAgMzg4LjA1YTYgNiAwIDAgMSA2LTZoMTQ4YTYgNiAwIDAgMSA2IDZ2MTA4YTYgNiAwIDAgMS02IDZIODA2YTYgNiAwIDAgMS02LTZ6Ii8+PHVzZSB0cmFuc2Zvcm09Im1hdHJpeCgxLDAsMCwxLDgxMiwzOTQuMDQ3MzIwNDEwNDkwMzMpIHRyYW5zbGF0ZSg1LjA5ODc2NTQzMjA5ODc1OSAyNi43Nzc3Nzc3Nzc3Nzc3OCkiIHhsaW5rOmhyZWY9IiNrIi8+PHVzZSB0cmFuc2Zvcm09Im1hdHJpeCgxLDAsMCwxLDgxMiwzOTQuMDQ3MzIwNDEwNDkwMzMpIHRyYW5zbGF0ZSg1OS4zNTgwMjQ2OTEzNTgwMiAyNi43Nzc3Nzc3Nzc3Nzc3OCkiIHhsaW5rOmhyZWY9IiNoIi8+PHVzZSB0cmFuc2Zvcm09Im1hdHJpeCgxLDAsMCwxLDgxMiwzOTQuMDQ3MzIwNDEwNDkwMzMpIHRyYW5zbGF0ZSgyMS44MjcxNjA0OTM4MjcxNTggNTMuNDQ0NDQ0NDQ0NDQ0NDUpIiB4bGluazpocmVmPSIjaSIvPjx1c2UgdHJhbnNmb3JtPSJtYXRyaXgoMSwwLDAsMSw4MTIsMzk0LjA0NzMyMDQxMDQ5MDMzKSB0cmFuc2xhdGUoMzguNDMyMDk4NzY1NDMyMSA4MC4xMTExMTExMTExMTExMSkiIHhsaW5rOmhyZWY9IiNqIi8+PHBhdGggZmlsbD0ibm9uZSIgc3Ryb2tlLXdpZHRoPSIyIiBzdHJva2U9IiM1ZTVlNWUiIGQ9Ik0zMjIuNDYgNDQyLjA1aDE2Ljk2YS41OC41OCAwIDAgMSAuNTguNTh2LjU0YS4wMy4wMyAwIDAgMCAuMDMuMDQiLz48cGF0aCBmaWxsPSIjNWU1ZTVlIiBzdHJva2Utd2lkdGg9Ii4wNSIgc3Ryb2tlPSIjNWU1ZTVlIiBkPSJNMzIyLjUgNDQzLjA1aC0xLjA0di0yaDEuMDN6Ii8+PHBhdGggZmlsbD0iIzVlNWU1ZSIgc3Ryb2tlLXdpZHRoPSIyIiBzdHJva2U9IiM1ZTVlNWUiIGQ9Ik0zNTUuMyA0NDMuMmwtMTQuMjcgNC42NHYtOS4yN3oiLz48cGF0aCBmaWxsPSIjZmZmIiBzdHJva2Utd2lkdGg9IjMiIHN0cm9rZT0iIzVlNWU1ZSIgZD0iTTM2My4zMiA1NjcuNDZhMy4yMiAzLjIyIDAgMCAxIDIuNjgtNWgxNDhhMy4yMiAzLjIyIDAgMCAxIDIuNjggNWwtNzMuMzYgMTEwLjRhNCA0IDAgMCAxLTYuNjQgMHoiLz48dXNlIHRyYW5zZm9ybT0ibWF0cml4KDEsMCwwLDEsMzY0Ljk5OTk5OTk3NDM1OTM1LDU2Ny40NTc4MTA3MTgzNTgpIHRyYW5zbGF0ZSg0My41ODUyNDY5MTM1ODAyNSA0NS41Mjc3Nzc3Nzc3Nzc3OCkiIHhsaW5rOmhyZWY9IiNsIi8+PHBhdGggZmlsbD0ibm9uZSIgc3Ryb2tlLXdpZHRoPSIyIiBzdHJva2U9IiM1ZTVlNWUiIGQ9Ik00NTAgNTA1Ljg3djIxLjE3YTYgNiAwIDAgMS02IDZIMjM2YTYgNiAwIDAgMC02IDZ2My42NiIvPjxwYXRoIGZpbGw9IiM1ZTVlNWUiIHN0cm9rZS13aWR0aD0iLjA1IiBzdHJva2U9IiM1ZTVlNWUiIGQ9Ik00NTEgNTA1LjloLTJ2LTEuMDNoMnoiLz48cGF0aCBmaWxsPSIjNWU1ZTVlIiBzdHJva2Utd2lkdGg9IjIiIHN0cm9rZT0iIzVlNWU1ZSIgZD0iTTIzMCA1NTcuOTZsLTQuNjQtMTQuMjZoOS4yOHoiLz48cGF0aCBmaWxsPSJub25lIiBzdHJva2Utd2lkdGg9IjIiIHN0cm9rZT0iIzVlNWU1ZSIgZD0iTTU5My41IDYyMi42NmgtOTMuMjRNNTkzLjQ4IDYyMi42Nmg0LjAyIi8+PHBhdGggZmlsbD0iIzVlNWU1ZSIgc3Ryb2tlLXdpZHRoPSIyIiBzdHJva2U9IiM1ZTVlNWUiIGQ9Ik00ODUgNjIyLjY2bDE0LjI2LTQuNjN2OS4yN3oiLz48cGF0aCBmaWxsPSIjZmZmIiBzdHJva2Utd2lkdGg9IjMiIHN0cm9rZT0iIzVlNWU1ZSIgZD0iTTM2MCA3NDZhNiA2IDAgMCAxIDYtNmgxNDhhNiA2IDAgMCAxIDYgNnYxMDhhNiA2IDAgMCAxLTYgNkgzNjZhNiA2IDAgMCAxLTYtNnoiLz48dXNlIHRyYW5zZm9ybT0ibWF0cml4KDEsMCwwLDEsMzcyLDc1MikgdHJhbnNsYXRlKDE0LjM4ODg4ODg4ODg4ODkgMzguNzc3Nzc3Nzc3Nzc3NzgpIiB4bGluazpocmVmPSIjZCIvPjx1c2UgdHJhbnNmb3JtPSJtYXRyaXgoMSwwLDAsMSwzNzIsNzUyKSB0cmFuc2xhdGUoODAuOTkzODI3MTYwNDkzODIgMzguNzc3Nzc3Nzc3Nzc3NzgpIiB4bGluazpocmVmPSIjbSIvPjx1c2UgdHJhbnNmb3JtPSJtYXRyaXgoMSwwLDAsMSwzNzIsNzUyKSB0cmFuc2xhdGUoMzguNDMyMDk4NzY1NDMyMSA2NS40NDQ0NDQ0NDQ0NDQ0NikiIHhsaW5rOmhyZWY9IiNqIi8+PHBhdGggZmlsbD0ibm9uZSIgc3Ryb2tlLXdpZHRoPSIyIiBzdHJva2U9IiM1ZTVlNWUiIGQ9Ik00MzkuOTUgNjgyLjE1VjcyMC4wMyIvPjxwYXRoIGZpbGw9IiM1ZTVlNWUiIHN0cm9rZS13aWR0aD0iLjA1IiBzdHJva2U9IiM1ZTVlNWUiIGQ9Ik00NDAgNjgxLjE2bC45NS0uMXYxLjEyaC0ydi0xLjEzeiIvPjxwYXRoIGZpbGw9IiM1ZTVlNWUiIHN0cm9rZS13aWR0aD0iMiIgc3Ryb2tlPSIjNWU1ZTVlIiBkPSJNNDM5Ljk1IDczNS4zbC00LjYzLTE0LjI3aDkuMjd6Ii8+PHBhdGggZmlsbD0iI2ZmZiIgc3Ryb2tlLXdpZHRoPSIzIiBzdHJva2U9IiM1ZTVlNWUiIGQ9Ik0xNDAgNTY4LjY2YTYgNiAwIDAgMSA2LTZoMTY4YTYgNiAwIDAgMSA2IDZ2MTA4YTYgNiAwIDAgMS02IDZIMTQ2YTYgNiAwIDAgMS02LTZ6Ii8+PHVzZSB0cmFuc2Zvcm09Im1hdHJpeCgxLDAsMCwxLDE1MS45OTk5OTk5NzQzNTkzNSw1NzQuNjYzMDU1ODcyMjkxOSkgdHJhbnNsYXRlKDkuNDI1OTI1OTI1OTI1OTI0IDM4Ljc3Nzc3Nzc3Nzc3Nzc4KSIgeGxpbms6aHJlZj0iI2QiLz48dXNlIHRyYW5zZm9ybT0ibWF0cml4KDEsMCwwLDEsMTUxLjk5OTk5OTk3NDM1OTM1LDU3NC42NjMwNTU4NzIyOTE5KSB0cmFuc2xhdGUoNzYuMDMwODY0MTk3NTMwODUgMzguNzc3Nzc3Nzc3Nzc3NzgpIiB4bGluazpocmVmPSIjaCIvPjx1c2UgdHJhbnNmb3JtPSJtYXRyaXgoMSwwLDAsMSwxNTEuOTk5OTk5OTc0MzU5MzUsNTc0LjY2MzA1NTg3MjI5MTkpIHRyYW5zbGF0ZSgxMS4zMDg2NDE5NzUzMDg2NDYgNjUuNDQ0NDQ0NDQ0NDQ0NDYpIiB4bGluazpocmVmPSIjbiIvPjx1c2UgdHJhbnNmb3JtPSJtYXRyaXgoMSwwLDAsMSwxNTEuOTk5OTk5OTc0MzU5MzUsNTc0LjY2MzA1NTg3MjI5MTkpIHRyYW5zbGF0ZSg5Ny42NjY2NjY2NjY2NjY2NyA2NS40NDQ0NDQ0NDQ0NDQ0NikiIHhsaW5rOmhyZWY9IiNvIi8+PHBhdGggZmlsbD0ibm9uZSIgc3Ryb2tlLXdpZHRoPSIyIiBzdHJva2U9IiM1ZTVlNWUiIGQ9Ik0zMjIuNDYgNjIyLjY2aDU3LjI4Ii8+PHBhdGggZmlsbD0iIzVlNWU1ZSIgc3Ryb2tlLXdpZHRoPSIuMDUiIHN0cm9rZT0iIzVlNWU1ZSIgZD0iTTMyMi41IDYyMy42NmgtMS4wNHYtMmgxLjAzeiIvPjxwYXRoIGZpbGw9IiM1ZTVlNWUiIHN0cm9rZS13aWR0aD0iMiIgc3Ryb2tlPSIjNWU1ZTVlIiBkPSJNMzk1IDYyMi42NmwtMTQuMjYgNC42NHYtOS4yN3oiLz48cGF0aCBmaWxsPSJub25lIiBzdHJva2Utd2lkdGg9IjIiIHN0cm9rZT0iIzVlNWU1ZSIgZD0iTTk5Ny41NCA0NDMuNGgtMTYuODZhLjY4LjY4IDAgMCAxLS42OC0uNjd2LS42NWEuMDMuMDMgMCAwIDAtLjAzLS4wMyIvPjxwYXRoIGZpbGw9IiM1ZTVlNWUiIHN0cm9rZS13aWR0aD0iLjA1IiBzdHJva2U9IiM1ZTVlNWUiIGQ9Ik05OTguNTQgNDQ0LjRoLTEuMDN2LTJoMS4wNHoiLz48cGF0aCBmaWxsPSIjNWU1ZTVlIiBzdHJva2Utd2lkdGg9IjIiIHN0cm9rZT0iIzVlNWU1ZSIgZD0iTTk2NC43IDQ0Mi4wNWwxNC4yNy00LjY0djkuMjh6Ii8+PHBhdGggZmlsbD0iI2ZmZiIgc3Ryb2tlLXdpZHRoPSIzIiBzdHJva2U9IiM1ZTVlNWUiIGQ9Ik0xMDAwIDU2OC44N2E2IDYgMCAwIDEgNi02aDE0OGE2IDYgMCAwIDEgNiA2djEwOGE2IDYgMCAwIDEtNiA2aC0xNDhhNiA2IDAgMCAxLTYtNnoiLz48dXNlIHRyYW5zZm9ybT0ibWF0cml4KDEsMCwwLDEsMTAxMi4wMDAwMDAwMDAwMDAyLDU3NC44NjgzMDEwMjYyMjU3KSB0cmFuc2xhdGUoNS4wOTg3NjU0MzIwOTg3NTkgMjYuNzc3Nzc3Nzc3Nzc3NzgpIiB4bGluazpocmVmPSIjayIvPjx1c2UgdHJhbnNmb3JtPSJtYXRyaXgoMSwwLDAsMSwxMDEyLjAwMDAwMDAwMDAwMDIsNTc0Ljg2ODMwMTAyNjIyNTcpIHRyYW5zbGF0ZSg1OS4zNTgwMjQ2OTEzNTgwMiAyNi43Nzc3Nzc3Nzc3Nzc3OCkiIHhsaW5rOmhyZWY9IiNoIi8+PHVzZSB0cmFuc2Zvcm09Im1hdHJpeCgxLDAsMCwxLDEwMTIuMDAwMDAwMDAwMDAwMiw1NzQuODY4MzAxMDI2MjI1NykgdHJhbnNsYXRlKDE5LjI2NTQzMjA5ODc2NTQzIDUzLjQ0NDQ0NDQ0NDQ0NDQ1KSIgeGxpbms6aHJlZj0iI3AiLz48dXNlIHRyYW5zZm9ybT0ibWF0cml4KDEsMCwwLDEsMTAxMi4wMDAwMDAwMDAwMDAyLDU3NC44NjgzMDEwMjYyMjU3KSB0cmFuc2xhdGUoMzguNDMyMDk4NzY1NDMyMSA4MC4xMTExMTExMTExMTExMSkiIHhsaW5rOmhyZWY9IiNqIi8+PHBhdGggZmlsbD0iI2ZmZiIgc3Ryb2tlLXdpZHRoPSIzIiBzdHJva2U9IiM1ZTVlNWUiIGQ9Ik04MDAgNTY4LjQ2YTYgNiAwIDAgMSA2LTZoMTQ4YTYgNiAwIDAgMSA2IDZ2MTA4YTYgNiAwIDAgMS02IDZIODA2YTYgNiAwIDAgMS02LTZ6Ii8+PHVzZSB0cmFuc2Zvcm09Im1hdHJpeCgxLDAsMCwxLDgxMi4wMDAwMDAwMDAwMDAyLDU3NC40NTc4MTA3MTgzNTgpIHRyYW5zbGF0ZSgxMS4yNzE2MDQ5MzgyNzE2MDggMjYuNzc3Nzc3Nzc3Nzc3NzgpIiB4bGluazpocmVmPSIjayIvPjx1c2UgdHJhbnNmb3JtPSJtYXRyaXgoMSwwLDAsMSw4MTIuMDAwMDAwMDAwMDAwMiw1NzQuNDU3ODEwNzE4MzU4KSB0cmFuc2xhdGUoNjUuNTMwODY0MTk3NTMwODYgMjYuNzc3Nzc3Nzc3Nzc3NzgpIiB4bGluazpocmVmPSIjcSIvPjx1c2UgdHJhbnNmb3JtPSJtYXRyaXgoMSwwLDAsMSw4MTIuMDAwMDAwMDAwMDAwMiw1NzQuNDU3ODEwNzE4MzU4KSB0cmFuc2xhdGUoMjcuOTA3NDA3NDA3NDA3NDA1IDUzLjQ0NDQ0NDQ0NDQ0NDQ1KSIgeGxpbms6aHJlZj0iI3IiLz48dXNlIHRyYW5zZm9ybT0ibWF0cml4KDEsMCwwLDEsODEyLjAwMDAwMDAwMDAwMDIsNTc0LjQ1NzgxMDcxODM1OCkgdHJhbnNsYXRlKDM4LjQzMjA5ODc2NTQzMjEgODAuMTExMTExMTExMTExMTEpIiB4bGluazpocmVmPSIjaiIvPjxwYXRoIGZpbGw9IiNmZmYiIHN0cm9rZS13aWR0aD0iMyIgc3Ryb2tlPSIjNWU1ZTVlIiBkPSJNNTgzLjMzIDc0NWEzLjIgMy4yIDAgMCAxIDIuNjctNWgxNDhhMy4yIDMuMiAwIDAgMSAyLjY3IDVsLTczLjM0IDExMGE0IDQgMCAwIDEtNi42NiAweiIvPjx1c2UgdHJhbnNmb3JtPSJtYXRyaXgoMSwwLDAsMSw1ODUsNzQ1KSB0cmFuc2xhdGUoNDMuNTg1MjQ2OTEzNTgwMjUgNTkuMDI3Nzc3Nzc3Nzc3NzgpIiB4bGluazpocmVmPSIjbCIvPjxwYXRoIGZpbGw9Im5vbmUiIHN0cm9rZS13aWR0aD0iMiIgc3Ryb2tlPSIjNWU1ZTVlIiBkPSJNNTIyLjQ2IDgwMGg3Ny4yOCIvPjxwYXRoIGZpbGw9IiM1ZTVlNWUiIHN0cm9rZS13aWR0aD0iLjA1IiBzdHJva2U9IiM1ZTVlNWUiIGQ9Ik01MjIuNSA4MDFoLTEuMDR2LTJoMS4wM3oiLz48cGF0aCBmaWxsPSIjNWU1ZTVlIiBzdHJva2Utd2lkdGg9IjIiIHN0cm9rZT0iIzVlNWU1ZSIgZD0iTTYxNSA4MDBsLTE0LjI2IDQuNjR2LTkuMjh6Ii8+PHBhdGggZmlsbD0iI2ZmZiIgc3Ryb2tlLXdpZHRoPSIzIiBzdHJva2U9IiM1ZTVlNWUiIGQ9Ik01ODAgNTY4LjQ2YTYgNiAwIDAgMSA2LTZoMTQ4YTYgNiAwIDAgMSA2IDZ2MTA4LjRhNiA2IDAgMCAxLTYgNkg1ODZhNiA2IDAgMCAxLTYtNnoiLz48dXNlIHRyYW5zZm9ybT0ibWF0cml4KDEsMCwwLDEsNTg0Ljk5OTk5OTk3NDM1OTMsNTY3LjQ1NzgxMDcxODM1OCkgdHJhbnNsYXRlKDEwLjg2NDE5NzUzMDg2NDIwMyA0NS41Mjc3Nzc3Nzc3Nzc3OCkiIHhsaW5rOmhyZWY9IiNkIi8+PHVzZSB0cmFuc2Zvcm09Im1hdHJpeCgxLDAsMCwxLDU4NC45OTk5OTk5NzQzNTkzLDU2Ny40NTc4MTA3MTgzNTgpIHRyYW5zbGF0ZSg3Ny40NjkxMzU4MDI0NjkxMyA0NS41Mjc3Nzc3Nzc3Nzc3OCkiIHhsaW5rOmhyZWY9IiNzIi8+PHVzZSB0cmFuc2Zvcm09Im1hdHJpeCgxLDAsMCwxLDU4NC45OTk5OTk5NzQzNTkzLDU2Ny40NTc4MTA3MTgzNTgpIHRyYW5zbGF0ZSg0NS40MzIwOTg3NjU0MzIxIDcyLjE5NDQ0NDQ0NDQ0NDQ2KSIgeGxpbms6aHJlZj0iI2oiLz48cGF0aCBmaWxsPSIjZmZmIiBzdHJva2Utd2lkdGg9IjMiIHN0cm9rZT0iIzVlNWU1ZSIgZD0iTTgwMCAxMDczLjU4YTYgNiAwIDAgMSA2LTZoMTQ4YTYgNiAwIDAgMSA2IDZ2MTA4YTYgNiAwIDAgMS02IDZIODA2YTYgNiAwIDAgMS02LTZ6Ii8+PHVzZSB0cmFuc2Zvcm09Im1hdHJpeCgxLDAsMCwxLDgxMi4wMDAwMDAwMDAwMDAyLDEwNzkuNTgwMDc1MDU3NTAwOCkgdHJhbnNsYXRlKDE3LjQ0NDQ0NDQ0NDQ0NDQ1IDUzLjc3Nzc3Nzc3Nzc3Nzc4KSIgeGxpbms6aHJlZj0iI3QiLz48cGF0aCBmaWxsPSJub25lIiBzdHJva2Utd2lkdGg9IjIiIHN0cm9rZT0iIzVlNWU1ZSIgZD0iTTc0Mi40NiA5ODBoMTMxLjVhNiA2IDAgMCAxIDYgNnY2MS42Ii8+PHBhdGggZmlsbD0iIzVlNWU1ZSIgc3Ryb2tlLXdpZHRoPSIuMDUiIHN0cm9rZT0iIzVlNWU1ZSIgZD0iTTc0Mi41IDk4MWgtMS4wNHYtMmgxLjAzeiIvPjxwYXRoIGZpbGw9IiM1ZTVlNWUiIHN0cm9rZS13aWR0aD0iMiIgc3Ryb2tlPSIjNWU1ZTVlIiBkPSJNODc5Ljk1IDEwNjIuODhsLTQuNjMtMTQuMjdoOS4yN3oiLz48cGF0aCBmaWxsPSJub25lIiBzdHJva2Utd2lkdGg9IjIiIHN0cm9rZT0iIzVlNWU1ZSIgZD0iTTg4MCA1MDQuNXYzNy45OSIvPjxwYXRoIGZpbGw9IiM1ZTVlNWUiIHN0cm9rZS13aWR0aD0iLjA1IiBzdHJva2U9IiM1ZTVlNWUiIGQ9Ik04ODEgNTA0LjU0aC0ydi0xLjAzaDJ6Ii8+PHBhdGggZmlsbD0iIzVlNWU1ZSIgc3Ryb2tlLXdpZHRoPSIyIiBzdHJva2U9IiM1ZTVlNWUiIGQ9Ik04ODAgNTU3Ljc2bC00LjY0LTE0LjI3aDkuMjh6Ii8+PHBhdGggZmlsbD0ibm9uZSIgc3Ryb2tlLXdpZHRoPSIyIiBzdHJva2U9IiM1ZTVlNWUiIGQ9Ik05OTcuNTUgNjQzLjY3aC0xNy4zM2EuMi4yIDAgMCAxLS4yLS4ydi0uMTdhLjAzLjAzIDAgMCAwLS4wNC0uMDMiLz48cGF0aCBmaWxsPSIjNWU1ZTVlIiBzdHJva2Utd2lkdGg9Ii4wNSIgc3Ryb2tlPSIjNWU1ZTVlIiBkPSJNOTk4LjU1IDY0NC42N2gtMS4wMnYtMmgxLjAyeiIvPjxwYXRoIGZpbGw9IiM1ZTVlNWUiIHN0cm9rZS13aWR0aD0iMiIgc3Ryb2tlPSIjNWU1ZTVlIiBkPSJNOTY0LjcgNjQzLjI3bDE0LjI4LTQuNjR2OS4yN3oiLz48cGF0aCBmaWxsPSJub25lIiBzdHJva2Utd2lkdGg9IjIiIHN0cm9rZT0iIzVlNWU1ZSIgZD0iTTk2Mi40NCA1OTRoMTcuMzRhLjIuMiAwIDAgMSAuMi4ydi4xNmEuMDMuMDMgMCAwIDAgLjA0LjAzIi8+PHBhdGggZmlsbD0iIzVlNWU1ZSIgc3Ryb2tlLXdpZHRoPSIuMDUiIHN0cm9rZT0iIzVlNWU1ZSIgZD0iTTk2Mi40NyA1OTVoLTEuMDN2LTJoMS4wM3oiLz48cGF0aCBmaWxsPSIjNWU1ZTVlIiBzdHJva2Utd2lkdGg9IjIiIHN0cm9rZT0iIzVlNWU1ZSIgZD0iTTk5NS4yOCA1OTQuNGwtMTQuMjYgNC42M3YtOS4yN3oiLz48cGF0aCBmaWxsPSJub25lIiBzdHJva2Utd2lkdGg9IjIiIHN0cm9rZT0iIzVlNWU1ZSIgZD0iTTg4MCA2ODQuOTJ2MzYuNTMiLz48cGF0aCBmaWxsPSIjNWU1ZTVlIiBzdHJva2Utd2lkdGg9Ii4wNSIgc3Ryb2tlPSIjNWU1ZTVlIiBkPSJNODgxIDY4NC45NWgtMnYtMS4wM2gyeiIvPjxwYXRoIGZpbGw9IiM1ZTVlNWUiIHN0cm9rZS13aWR0aD0iMiIgc3Ryb2tlPSIjNWU1ZTVlIiBkPSJNODgwIDczNi43MmwtNC42NC0xNC4yN2g5LjI4eiIvPjxwYXRoIGZpbGw9IiNmZmYiIHN0cm9rZS13aWR0aD0iMyIgc3Ryb2tlPSIjNWU1ZTVlIiBkPSJNNTgwIDM4OWE2IDYgMCAwIDEgNi02aDE0OGE2IDYgMCAwIDEgNiA2djEwOGE2IDYgMCAwIDEtNiA2SDU4NmE2IDYgMCAwIDEtNi02eiIvPjx1c2UgdHJhbnNmb3JtPSJtYXRyaXgoMSwwLDAsMSw1OTIuMDAwMDAwMDI1NjQwNywzOTUpIHRyYW5zbGF0ZSg0LjUxMjM0NTY3OTAxMjM1NTUgMzguNzc3Nzc3Nzc3Nzc3NzgpIiB4bGluazpocmVmPSIjZCIvPjx1c2UgdHJhbnNmb3JtPSJtYXRyaXgoMSwwLDAsMSw1OTIuMDAwMDAwMDI1NjQwNywzOTUpIHRyYW5zbGF0ZSg3MS4xMTcyODM5NTA2MTcyOCAzOC43Nzc3Nzc3Nzc3Nzc3OCkiIHhsaW5rOmhyZWY9IiN1Ii8+PHVzZSB0cmFuc2Zvcm09Im1hdHJpeCgxLDAsMCwxLDU5Mi4wMDAwMDAwMjU2NDA3LDM5NSkgdHJhbnNsYXRlKDEyLjUwNjE3MjgzOTUwNjE3IDY1LjQ0NDQ0NDQ0NDQ0NDQ2KSIgeGxpbms6aHJlZj0iI2YiLz48cGF0aCBmaWxsPSIjZmZmIiBzdHJva2Utd2lkdGg9IjMiIHN0cm9rZT0iIzVlNWU1ZSIgZD0iTTM2MCAxMDczLjU4YTYgNiAwIDAgMSA2LTZoMTQ4YTYgNiAwIDAgMSA2IDZ2MTA4YTYgNiAwIDAgMS02IDZIMzY2YTYgNiAwIDAgMS02LTZ6Ii8+PHVzZSB0cmFuc2Zvcm09Im1hdHJpeCgxLDAsMCwxLDM3Mi4wMDAwMDAwMDAwMDAwNiwxMDc5LjU4MDA3NTA1NzUwMDgpIHRyYW5zbGF0ZSgzNS4zNzY1NDMyMDk4NzY1NDQgMzguNzc3Nzc3Nzc3Nzc3NzgpIiB4bGluazpocmVmPSIjdiIvPjx1c2UgdHJhbnNmb3JtPSJtYXRyaXgoMSwwLDAsMSwzNzIuMDAwMDAwMDAwMDAwMDYsMTA3OS41ODAwNzUwNTc1MDA4KSB0cmFuc2xhdGUoMjMuMDAwMDAwMDAwMDAwMDA3IDY1LjQ0NDQ0NDQ0NDQ0NDQ2KSIgeGxpbms6aHJlZj0iI3ciLz48cGF0aCBmaWxsPSJub25lIiBzdHJva2Utd2lkdGg9IjIiIHN0cm9rZT0iIzVlNWU1ZSIgZD0iTTY2MCA4NTkuM3Y0MC43MiIvPjxwYXRoIGZpbGw9IiM1ZTVlNWUiIHN0cm9rZS13aWR0aD0iLjA1IiBzdHJva2U9IiM1ZTVlNWUiIGQ9Ik02NjAgODU4LjNsMS0uMXYxLjEyaC0ydi0xLjEyeiIvPjxwYXRoIGZpbGw9IiM1ZTVlNWUiIHN0cm9rZS13aWR0aD0iMiIgc3Ryb2tlPSIjNWU1ZTVlIiBkPSJNNjYwIDkxNS4zbC00LjY0LTE0LjI3aDkuMjh6Ii8+PHBhdGggZmlsbD0ibm9uZSIgc3Ryb2tlLXdpZHRoPSIyIiBzdHJva2U9IiM1ZTVlNWUiIGQ9Ik01NzcuNTQgOTgwSDQ0NmE2IDYgMCAwIDAtNiA2djYxLjYiLz48cGF0aCBmaWxsPSIjNWU1ZTVlIiBzdHJva2Utd2lkdGg9Ii4wNSIgc3Ryb2tlPSIjNWU1ZTVlIiBkPSJNNTc4LjU0IDk4MWgtMS4wM3YtMmgxLjA0eiIvPjxwYXRoIGZpbGw9IiM1ZTVlNWUiIHN0cm9rZS13aWR0aD0iMiIgc3Ryb2tlPSIjNWU1ZTVlIiBkPSJNNDQwIDEwNjIuODhsLTQuNjQtMTQuMjdoOS4yOHoiLz48cGF0aCBmaWxsPSIjZmZmIiBzdHJva2Utd2lkdGg9IjMiIHN0cm9rZT0iIzVlNWU1ZSIgZD0iTTU4MCAxMDczLjU4YTYgNiAwIDAgMSA2LTZoMTQ4YTYgNiAwIDAgMSA2IDZ2MTA4YTYgNiAwIDAgMS02IDZINTg2YTYgNiAwIDAgMS02LTZ6Ii8+PHVzZSB0cmFuc2Zvcm09Im1hdHJpeCgxLDAsMCwxLDU5MS45OTk5OTk5MzU4OTgxLDEwNzkuNTgwMDc1MDU3NTAwOCkgdHJhbnNsYXRlKDI3LjMyMDk4NzY1NDMyMDk4NyA1My43Nzc3Nzc3Nzc3Nzc3OCkiIHhsaW5rOmhyZWY9IiN4Ii8+PHBhdGggZmlsbD0ibm9uZSIgc3Ryb2tlLXdpZHRoPSIyIiBzdHJva2U9IiM1ZTVlNWUiIGQ9Ik01MjIuNDYgMTEyNy41OGgzNy41NyIvPjxwYXRoIGZpbGw9IiM1ZTVlNWUiIHN0cm9rZS13aWR0aD0iLjA1IiBzdHJva2U9IiM1ZTVlNWUiIGQ9Ik01MjIuNSAxMTI4LjU4aC0xLjA0di0yaDEuMDN6Ii8+PHBhdGggZmlsbD0iIzVlNWU1ZSIgc3Ryb2tlLXdpZHRoPSIyIiBzdHJva2U9IiM1ZTVlNWUiIGQ9Ik01NzUuMyAxMTI3LjU4bC0xNC4yNyA0LjY0di05LjI4eiIvPjxwYXRoIGZpbGw9Im5vbmUiIHN0cm9rZS13aWR0aD0iMiIgc3Ryb2tlPSIjNWU1ZTVlIiBkPSJNNzk3LjU0IDExMjcuNThoLTM3LjU3Ii8+PHBhdGggZmlsbD0iIzVlNWU1ZSIgc3Ryb2tlLXdpZHRoPSIuMDUiIHN0cm9rZT0iIzVlNWU1ZSIgZD0iTTc5OC41NCAxMTI4LjU4aC0xLjAzdi0yaDEuMDR6Ii8+PHBhdGggZmlsbD0iIzVlNWU1ZSIgc3Ryb2tlLXdpZHRoPSIyIiBzdHJva2U9IiM1ZTVlNWUiIGQ9Ik03NDQuNyAxMTI3LjU4bDE0LjI3LTQuNjR2OS4yOHoiLz48cGF0aCBmaWxsPSJub25lIiBzdHJva2Utd2lkdGg9IjIiIHN0cm9rZT0iIzVlNWU1ZSIgZD0iTTQ0MCAxMTkwLjA0djE2Ii8+PHBhdGggZmlsbD0iIzVlNWU1ZSIgc3Ryb2tlLXdpZHRoPSIuMDUiIHN0cm9rZT0iIzVlNWU1ZSIgZD0iTTQ0MSAxMTkwLjA3aC0ydi0xLjAzaDJ6Ii8+PHBhdGggZmlsbD0iIzVlNWU1ZSIgc3Ryb2tlLXdpZHRoPSIyIiBzdHJva2U9IiM1ZTVlNWUiIGQ9Ik00NDAgMTIyMS4zbC00LjY0LTE0LjI3aDkuMjh6Ii8+PHBhdGggZmlsbD0iI2ZmZiIgc3Ryb2tlLXdpZHRoPSIzIiBzdHJva2U9IiM1ZTVlNWUiIGQ9Ik0zNjAgMTIzMmE2IDYgMCAwIDEgNi02aDE0OGE2IDYgMCAwIDEgNiA2djEwOGE2IDYgMCAwIDEtNiA2SDM2NmE2IDYgMCAwIDEtNi02eiIvPjxnPjx1c2UgdHJhbnNmb3JtPSJtYXRyaXgoMSwwLDAsMSwzNzIuMDAwMDAwMDAwMDAwMSwxMjM3Ljk5ODI2NTI2MTQzMTIpIHRyYW5zbGF0ZSg1Ljc3Nzc3Nzc3Nzc3Nzc4NiAzOC43Nzc3Nzc3Nzc3Nzc3OCkiIHhsaW5rOmhyZWY9IiN5Ii8+PHVzZSB0cmFuc2Zvcm09Im1hdHJpeCgxLDAsMCwxLDM3Mi4wMDAwMDAwMDAwMDAxLDEyMzcuOTk4MjY1MjYxNDMxMikgdHJhbnNsYXRlKDc2LjAyNDY5MTM1ODAyNDY4IDM4Ljc3Nzc3Nzc3Nzc3Nzc4KSIgeGxpbms6aHJlZj0iI3oiLz48dXNlIHRyYW5zZm9ybT0ibWF0cml4KDEsMCwwLDEsMzcyLjAwMDAwMDAwMDAwMDEsMTIzNy45OTgyNjUyNjE0MzEyKSB0cmFuc2xhdGUoNTAuMDk4NzY1NDMyMDk4NzY2IDY1LjQ0NDQ0NDQ0NDQ0NDQ2KSIgeGxpbms6aHJlZj0iI0EiLz48L2c+PHBhdGggZmlsbD0iI2ZmZiIgc3Ryb2tlLXdpZHRoPSIzIiBzdHJva2U9IiM1ZTVlNWUiIGQ9Ik0xMDAwIDEyMzJhNiA2IDAgMCAxIDYtNmgxNDhhNiA2IDAgMCAxIDYgNnYxMDhhNiA2IDAgMCAxLTYgNmgtMTQ4YTYgNiAwIDAgMS02LTZ6Ii8+PGc+PHVzZSB0cmFuc2Zvcm09Im1hdHJpeCgxLDAsMCwxLDEwMTIsMTIzNy45OTgyNjUyNjE0MzEyKSB0cmFuc2xhdGUoMjcuMzIwOTg3NjU0MzIwOTk0IDI2Ljc3Nzc3Nzc3Nzc3Nzc4KSIgeGxpbms6aHJlZj0iI0IiLz48dXNlIHRyYW5zZm9ybT0ibWF0cml4KDEsMCwwLDEsMTAxMiwxMjM3Ljk5ODI2NTI2MTQzMTIpIHRyYW5zbGF0ZSgzLjg5NTA2MTcyODM5NTA2MzUgNTMuNDQ0NDQ0NDQ0NDQ0NDUpIiB4bGluazpocmVmPSIjQyIvPjx1c2UgdHJhbnNmb3JtPSJtYXRyaXgoMSwwLDAsMSwxMDEyLDEyMzcuOTk4MjY1MjYxNDMxMikgdHJhbnNsYXRlKDkuNDgxNDgxNDgxNDgxNDg4IDgwLjExMTExMTExMTExMTExKSIgeGxpbms6aHJlZj0iI0QiLz48L2c+PHBhdGggZmlsbD0ibm9uZSIgc3Ryb2tlLXdpZHRoPSIyIiBzdHJva2U9IiM1ZTVlNWUiIGQ9Ik04ODAgMTE5MC4wNHYxNiIvPjxwYXRoIGZpbGw9IiM1ZTVlNWUiIHN0cm9rZS13aWR0aD0iLjA1IiBzdHJva2U9IiM1ZTVlNWUiIGQ9Ik04ODEgMTE5MC4wN2gtMnYtMS4wM2gyeiIvPjxwYXRoIGZpbGw9IiM1ZTVlNWUiIHN0cm9rZS13aWR0aD0iMiIgc3Ryb2tlPSIjNWU1ZTVlIiBkPSJNODgwIDEyMjEuM2wtNC42NC0xNC4yN2g5LjI4eiIvPjxwYXRoIGZpbGw9IiNmZmYiIHN0cm9rZS13aWR0aD0iMyIgc3Ryb2tlPSIjNWU1ZTVlIiBkPSJNODAwIDEyMzJhNiA2IDAgMCAxIDYtNmgxNDhhNiA2IDAgMCAxIDYgNnYxMDhhNiA2IDAgMCAxLTYgNkg4MDZhNiA2IDAgMCAxLTYtNnoiLz48Zz48dXNlIHRyYW5zZm9ybT0ibWF0cml4KDEsMCwwLDEsODEyLjAwMDAwMDAwMDAwMDIsMTIzNy45OTgyNjUyNjE0MzEyKSB0cmFuc2xhdGUoMjIuNDEzNTgwMjQ2OTEzNTc1IDUzLjc3Nzc3Nzc3Nzc3Nzc4KSIgeGxpbms6aHJlZj0iI0UiLz48L2c+PHBhdGggZmlsbD0ibm9uZSIgc3Ryb2tlLXdpZHRoPSIyIiBzdHJva2U9IiM1ZTVlNWUiIGQ9Ik05OTcuNTQgMTI4NmgtMTcuNTciLz48cGF0aCBmaWxsPSIjNWU1ZTVlIiBzdHJva2Utd2lkdGg9Ii4wNSIgc3Ryb2tlPSIjNWU1ZTVlIiBkPSJNOTk4LjU0IDEyODdoLTEuMDN2LTJoMS4wNHoiLz48cGF0aCBmaWxsPSIjNWU1ZTVlIiBzdHJva2Utd2lkdGg9IjIiIHN0cm9rZT0iIzVlNWU1ZSIgZD0iTTk2NC43IDEyODZsMTQuMjctNC42NHY5LjI3eiIvPjxwYXRoIGZpbGw9IiNmZmYiIHN0cm9rZS13aWR0aD0iMyIgc3Ryb2tlPSIjNWU1ZTVlIiBkPSJNNTgwIDkyNmE2IDYgMCAwIDEgNi02aDE0OGE2IDYgMCAwIDEgNiA2djEwOGE2IDYgMCAwIDEtNiA2SDU4NmE2IDYgMCAwIDEtNi02eiIvPjxnPjx1c2UgdHJhbnNmb3JtPSJtYXRyaXgoMSwwLDAsMSw1OTIuMDAwMDAwMDI1NjQwNyw5MzIpIHRyYW5zbGF0ZSgyOS44MjA5ODc2NTQzMjA5ODcgNTMuNzc3Nzc3Nzc3Nzc3NzgpIiB4bGluazpocmVmPSIjRiIvPjwvZz48cGF0aCBmaWxsPSIjZmZmIiBzdHJva2Utd2lkdGg9IjMiIHN0cm9rZT0iIzVlNWU1ZSIgZD0iTTgwMCA3NDcuNDJhNiA2IDAgMCAxIDYtNmgxNDhhNiA2IDAgMCAxIDYgNnYxMDhhNiA2IDAgMCAxLTYgNkg4MDZhNiA2IDAgMCAxLTYtNnoiLz48Zz48dXNlIHRyYW5zZm9ybT0ibWF0cml4KDEsMCwwLDEsODEyLjAwMDAwMDAwMDAwMDIsNzUzLjQxNzMyMjgzNDY0NTYpIHRyYW5zbGF0ZSgzMS42MTExMTExMTExMTExMTQgMjYuNzc3Nzc3Nzc3Nzc3NzgpIiB4bGluazpocmVmPSIjayIvPjx1c2UgdHJhbnNmb3JtPSJtYXRyaXgoMSwwLDAsMSw4MTIuMDAwMDAwMDAwMDAwMiw3NTMuNDE3MzIyODM0NjQ1NikgdHJhbnNsYXRlKDg1Ljg3MDM3MDM3MDM3MDM4IDI2Ljc3Nzc3Nzc3Nzc3Nzc4KSIgeGxpbms6aHJlZj0iI0ciLz48dXNlIHRyYW5zZm9ybT0ibWF0cml4KDEsMCwwLDEsODEyLjAwMDAwMDAwMDAwMDIsNzUzLjQxNzMyMjgzNDY0NTYpIHRyYW5zbGF0ZSg1LjEyOTYyOTYyOTYyOTY0IDUzLjQ0NDQ0NDQ0NDQ0NDQ1KSIgeGxpbms6aHJlZj0iI0giLz48dXNlIHRyYW5zZm9ybT0ibWF0cml4KDEsMCwwLDEsODEyLjAwMDAwMDAwMDAwMDIsNzUzLjQxNzMyMjgzNDY0NTYpIHRyYW5zbGF0ZSg3MS43MzQ1Njc5MDEyMzQ1NiA1My40NDQ0NDQ0NDQ0NDQ0NSkiIHhsaW5rOmhyZWY9IiNJIi8+PHVzZSB0cmFuc2Zvcm09Im1hdHJpeCgxLDAsMCwxLDgxMi4wMDAwMDAwMDAwMDAyLDc1My40MTczMjI4MzQ2NDU2KSB0cmFuc2xhdGUoMjEuMTc5MDEyMzQ1Njc5MDEzIDgwLjExMTExMTExMTExMTExKSIgeGxpbms6aHJlZj0iI0oiLz48L2c+PHBhdGggZmlsbD0ibm9uZSIgc3Ryb2tlLXdpZHRoPSIyIiBzdHJva2U9IiM1ZTVlNWUiIGQ9Ik03OTcuNTQgODAxLjQyaC03OC4yMiIvPjxwYXRoIGZpbGw9IiM1ZTVlNWUiIHN0cm9rZS13aWR0aD0iLjA1IiBzdHJva2U9IiM1ZTVlNWUiIGQ9Ik03OTguNTQgODAyLjQyaC0xLjAzdi0yaDEuMDR6Ii8+PHBhdGggZmlsbD0iIzVlNWU1ZSIgc3Ryb2tlLXdpZHRoPSIyIiBzdHJva2U9IiM1ZTVlNWUiIGQ9Ik03MDQuMDUgODAxLjQybDE0LjI3LTQuNjR2OS4yN3oiLz48cGF0aCBmaWxsPSIjZmZmIiBzdHJva2Utd2lkdGg9IjMiIHN0cm9rZT0iIzVlNWU1ZSIgZD0iTTE0NDAgMTUwLjU4YzAgNi42My0yNi44NiAxMi02MCAxMnMtNjAtNS4zNy02MC0xMnYtOTZjMC02LjYyIDI2Ljg2LTEyIDYwLTEyczYwIDUuMzggNjAgMTJ6Ii8+PHBhdGggZmlsbD0ibm9uZSIgc3Ryb2tlLXdpZHRoPSIzIiBzdHJva2U9IiM1ZTVlNWUiIGQ9Ik0xNDQwIDU0LjU4YzAgNi42My0yNi44NiAxMi02MCAxMnMtNjAtNS4zNy02MC0xMiIvPjxnPjx1c2UgdHJhbnNmb3JtPSJtYXRyaXgoMSwwLDAsMSwxMzI1LDcxLjU4MjY3NzE2NTM1NDQzKSB0cmFuc2xhdGUoMjkuMDc0MDc0MDc0MDc0MDc2IDMzLjkwMjc3Nzc3Nzc3Nzc4KSIgeGxpbms6aHJlZj0iI0siLz48dXNlIHRyYW5zZm9ybT0ibWF0cml4KDEsMCwwLDEsMTMyNSw3MS41ODI2NzcxNjUzNTQ0MykgdHJhbnNsYXRlKDEwIDYwLjU2OTQ0NDQ0NDQ0NDQ1KSIgeGxpbms6aHJlZj0iI0wiLz48L2c+PHBhdGggZmlsbC1vcGFjaXR5PSIuMiIgZmlsbD0iI2IyYjJiMiIgc3Ryb2tlPSIjNWU1ZTVlIiBkPSJNMTIwMCAyMTIuMDhhNiA2IDAgMCAxIDYtNmgzODhhNiA2IDAgMCAxIDYgNlY2OTRhNiA2IDAgMCAxLTYgNmgtMzg4YTYgNiAwIDAgMS02LTZ6Ii8+PHBhdGggZmlsbD0iI2ZmZiIgc3Ryb2tlLXdpZHRoPSIzIiBzdHJva2U9IiM1ZTVlNWUiIGQ9Ik0xMjQ5LjE4IDI0NS4zYTEwIDEwIDAgMCAxIDguODItNS4zaDg0YTEwIDEwIDAgMCAxIDguODIgNS4zbDI2LjM2IDQ5LjRhMTEuMjUgMTEuMjUgMCAwIDEgMCAxMC42bC0yNi4zNiA0OS40YTEwIDEwIDAgMCAxLTguODIgNS4zaC04NGExMCAxMCAwIDAgMS04LjgyLTUuM2wtMjYuMzYtNDkuNGExMS4yNSAxMS4yNSAwIDAgMSAwLTEwLjZ6Ii8+PGc+PHVzZSB0cmFuc2Zvcm09Im1hdHJpeCgxLDAsMCwxLDEyMjUsMjQ1KSB0cmFuc2xhdGUoMTYuODkzODg4ODg4ODg4ODkgNTkuMDI3Nzc3Nzc3Nzc3NzgpIiB4bGluazpocmVmPSIjTSIvPjx1c2UgdHJhbnNmb3JtPSJtYXRyaXgoMSwwLDAsMSwxMjI1LDI0NSkgdHJhbnNsYXRlKDc0LjkxODU4MDI0NjkxMzU4IDU5LjAyNzc3Nzc3Nzc3Nzc4KSIgeGxpbms6aHJlZj0iI04iLz48L2c+PHBhdGggZmlsbD0iI2ZmZiIgc3Ryb2tlLXdpZHRoPSIzIiBzdHJva2U9IiM1ZTVlNWUiIGQ9Ik0xNDAwIDI0NmE2IDYgMCAwIDEgNi02aDE0OGE2IDYgMCAwIDEgNiA2djEwOGE2IDYgMCAwIDEtNiA2aC0xNDhhNiA2IDAgMCAxLTYtNnoiLz48Zz48dXNlIHRyYW5zZm9ybT0ibWF0cml4KDEsMCwwLDEsMTQxMiwyNTIpIHRyYW5zbGF0ZSg4LjI0NjkxMzU4MDI0NjkyNSAzOC43Nzc3Nzc3Nzc3Nzc3OCkiIHhsaW5rOmhyZWY9IiNPIi8+PHVzZSB0cmFuc2Zvcm09Im1hdHJpeCgxLDAsMCwxLDE0MTIsMjUyKSB0cmFuc2xhdGUoNzQuODUxODUxODUxODUxODUgMzguNzc3Nzc3Nzc3Nzc3NzgpIiB4bGluazpocmVmPSIjUCIvPjx1c2UgdHJhbnNmb3JtPSJtYXRyaXgoMSwwLDAsMSwxNDEyLDI1MikgdHJhbnNsYXRlKDIyLjM1MTg1MTg1MTg1MTg0OCA2NS40NDQ0NDQ0NDQ0NDQ0NikiIHhsaW5rOmhyZWY9IiNRIi8+PC9nPjxwYXRoIGZpbGw9IiNmZmYiIHN0cm9rZS13aWR0aD0iMyIgc3Ryb2tlPSIjNWU1ZTVlIiBkPSJNMTMyMCA1NjguNDZhNiA2IDAgMCAxIDYtNmgxNDhhNiA2IDAgMCAxIDYgNnYxMDhhNiA2IDAgMCAxLTYgNmgtMTQ4YTYgNiAwIDAgMS02LTZ6Ii8+PGc+PHVzZSB0cmFuc2Zvcm09Im1hdHJpeCgxLDAsMCwxLDEzMzIsNTc0LjQ1NzgxMDcxODM1OCkgdHJhbnNsYXRlKDIuNTk4NzY1NDMyMDk4NzU4OCAzOC43Nzc3Nzc3Nzc3Nzc3OCkiIHhsaW5rOmhyZWY9IiNNIi8+PHVzZSB0cmFuc2Zvcm09Im1hdHJpeCgxLDAsMCwxLDEzMzIsNTc0LjQ1NzgxMDcxODM1OCkgdHJhbnNsYXRlKDYwLjYyMzQ1Njc5MDEyMzQ1IDM4Ljc3Nzc3Nzc3Nzc3Nzc4KSIgeGxpbms6aHJlZj0iI1IiLz48dXNlIHRyYW5zZm9ybT0ibWF0cml4KDEsMCwwLDEsMTMzMiw1NzQuNDU3ODEwNzE4MzU4KSB0cmFuc2xhdGUoMzEuNjQxOTc1MzA4NjQxOTc1IDY1LjQ0NDQ0NDQ0NDQ0NDQ2KSIgeGxpbms6aHJlZj0iI1MiLz48dXNlIHRyYW5zZm9ybT0ibWF0cml4KDEsMCwwLDEsMTMzMiw1NzQuNDU3ODEwNzE4MzU4KSB0cmFuc2xhdGUoNTYuMzMzMzMzMzMzMzMzMzMgNjUuNDQ0NDQ0NDQ0NDQ0NDYpIiB4bGluazpocmVmPSIjVCIvPjwvZz48ZGVmcz48cGF0aCBpZD0iVSIgZD0iTTE4NS0xODljLTUtNDgtMTIzLTU0LTEyNCAyIDE0IDc1IDE1OCAxNCAxNjMgMTE5IDMgNzgtMTIxIDg3LTE3NSA1NS0xNy0xMC0yOC0yNi0zMy00NmwzMy03YzUgNTYgMTQxIDYzIDE0MS0xIDAtNzgtMTU1LTE0LTE2Mi0xMTgtNS04MiAxNDUtODQgMTc5LTM0IDUgNyA4IDE2IDExIDI1IiBmaWxsPSIjMzMzIi8+PHBhdGggaWQ9IlYiIGQ9Ik0zMC0yNDhjMTE4LTcgMjE2IDggMjEzIDEyMkMyNDAtNDggMjAwIDAgMTIyIDBIMzB2LTI0OHpNNjMtMjdjODkgOCAxNDYtMTYgMTQ2LTk5cy02MC0xMDEtMTQ2LTk1djE5NCIgZmlsbD0iIzMzMyIvPjxnIGlkPSJhIj48dXNlIHhsaW5rOmhyZWY9IiNVIiB0cmFuc2Zvcm09Im1hdHJpeCgwLjA2MTcyODM5NTA2MTcyODM5LDAsMCwwLjA2MTcyODM5NTA2MTcyODM5LDAsMCkiLz48dXNlIHhsaW5rOmhyZWY9IiNWIiB0cmFuc2Zvcm09Im1hdHJpeCgwLjA2MTcyODM5NTA2MTcyODM5LDAsMCwwLjA2MTcyODM5NTA2MTcyODM5LDE0LjgxNDgxNDgxNDgxNDgxMywwKSIvPjx1c2UgeGxpbms6aHJlZj0iI1UiIHRyYW5zZm9ybT0ibWF0cml4KDAuMDYxNzI4Mzk1MDYxNzI4MzksMCwwLDAuMDYxNzI4Mzk1MDYxNzI4MzksMzAuODAyNDY5MTM1ODAyNDcsMCkiLz48dXNlIHhsaW5rOmhyZWY9IiNVIiB0cmFuc2Zvcm09Im1hdHJpeCgwLjA2MTcyODM5NTA2MTcyODM5LDAsMCwwLjA2MTcyODM5NTA2MTcyODM5LDQ1LjYxNzI4Mzk1MDYxNzI4LDApIi8+PC9nPjxwYXRoIGlkPSJXIiBkPSJNMTQxLTM2QzEyNi0xNSAxMTAgNSA3MyA0IDM3IDMgMTUtMTcgMTUtNTNjLTEtNjQgNjMtNjMgMTI1LTYzIDMtMzUtOS01NC00MS01NC0yNCAxLTQxIDctNDIgMzFsLTMzLTNjNS0zNyAzMy01MiA3Ni01MiA0NSAwIDcyIDIwIDcyIDY0djgyYy0xIDIwIDcgMzIgMjggMjd2MjBjLTMxIDktNjEtMi01OS0zNXpNNDgtNTNjMCAyMCAxMiAzMyAzMiAzMyA0MS0zIDYzLTI5IDYwLTc0LTQzIDItOTItNS05MiA0MSIgZmlsbD0iIzMzMyIvPjxwYXRoIGlkPSJYIiBkPSJNMTM1LTE0M2MtMy0zNC04Ni0zOC04NyAwIDE1IDUzIDExNSAxMiAxMTkgOTBTMTcgMjEgMTAtNDVsMjgtNWM0IDM2IDk3IDQ1IDk4IDAtMTAtNTYtMTEzLTE1LTExOC05MC00LTU3IDgyLTYzIDEyMi00MiAxMiA3IDIxIDE5IDI0IDM1IiBmaWxsPSIjMzMzIi8+PHBhdGggaWQ9IlkiIGQ9Ik01OS00N2MtMiAyNCAxOCAyOSAzOCAyMnYyNEM2NCA5IDI3IDQgMjctNDB2LTEyN0g1di0yM2gyNGw5LTQzaDIxdjQzaDM1djIzSDU5djEyMCIgZmlsbD0iIzMzMyIvPjxwYXRoIGlkPSJaIiBkPSJNMTAwLTE5NGM2MyAwIDg2IDQyIDg0IDEwNkg0OWMwIDQwIDE0IDY3IDUzIDY4IDI2IDEgNDMtMTIgNDktMjlsMjggOGMtMTEgMjgtMzcgNDUtNzcgNDVDNDQgNCAxNC0zMyAxNS05NmMxLTYxIDI2LTk4IDg1LTk4em01MiA4MWM2LTYwLTc2LTc3LTk3LTI4LTMgNy02IDE3LTYgMjhoMTAzIiBmaWxsPSIjMzMzIi8+PHBhdGggaWQ9ImFhIiBkPSJNMTE0LTE2M0MzNi0xNzkgNjEtNzIgNTcgMEgyNWwtMS0xOTBoMzBjMSAxMi0xIDI5IDIgMzkgNi0yNyAyMy00OSA1OC00MXYyOSIgZmlsbD0iIzMzMyIvPjxwYXRoIGlkPSJhYiIgZD0iTTEwMC0xOTRjNjItMSA4NSAzNyA4NSA5OSAxIDYzLTI3IDk5LTg2IDk5UzE2LTM1IDE1LTk1YzAtNjYgMjgtOTkgODUtOTl6TTk5LTIwYzQ0IDEgNTMtMzEgNTMtNzUgMC00My04LTc1LTUxLTc1cy01MyAzMi01MyA3NSAxMCA3NCA1MSA3NSIgZmlsbD0iIzMzMyIvPjxwYXRoIGlkPSJhYyIgZD0iTTI0LTIzMXYtMzBoMzJ2MzBIMjR6TTI0IDB2LTE5MGgzMlYwSDI0IiBmaWxsPSIjMzMzIi8+PHBhdGggaWQ9ImFkIiBkPSJNODUtMTk0YzMxIDAgNDggMTMgNjAgMzNsLTEtMTAwaDMybDEgMjYxaC0zMGMtMi0xMCAwLTIzLTMtMzFDMTM0LTggMTE2IDQgODUgNCAzMiA0IDE2LTM1IDE1LTk0YzAtNjYgMjMtMTAwIDcwLTEwMHptOSAyNGMtNDAgMC00NiAzNC00NiA3NSAwIDQwIDYgNzQgNDUgNzQgNDIgMCA1MS0zMiA1MS03NiAwLTQyLTktNzQtNTAtNzMiIGZpbGw9IiMzMzMiLz48ZyBpZD0iYiI+PHVzZSB4bGluazpocmVmPSIjVyIgdHJhbnNmb3JtPSJtYXRyaXgoMC4wNjE3MjgzOTUwNjE3MjgzOSwwLDAsMC4wNjE3MjgzOTUwNjE3MjgzOSwwLDApIi8+PHVzZSB4bGluazpocmVmPSIjWCIgdHJhbnNmb3JtPSJtYXRyaXgoMC4wNjE3MjgzOTUwNjE3MjgzOSwwLDAsMC4wNjE3MjgzOTUwNjE3MjgzOSwxMi4zNDU2NzkwMTIzNDU2NzksMCkiLz48dXNlIHhsaW5rOmhyZWY9IiNZIiB0cmFuc2Zvcm09Im1hdHJpeCgwLjA2MTcyODM5NTA2MTcyODM5LDAsMCwwLjA2MTcyODM5NTA2MTcyODM5LDIzLjQ1Njc5MDEyMzQ1Njc5LDApIi8+PHVzZSB4bGluazpocmVmPSIjWiIgdHJhbnNmb3JtPSJtYXRyaXgoMC4wNjE3MjgzOTUwNjE3MjgzOSwwLDAsMC4wNjE3MjgzOTUwNjE3MjgzOSwyOS42Mjk2Mjk2Mjk2Mjk2MywwKSIvPjx1c2UgeGxpbms6aHJlZj0iI2FhIiB0cmFuc2Zvcm09Im1hdHJpeCgwLjA2MTcyODM5NTA2MTcyODM5LDAsMCwwLjA2MTcyODM5NTA2MTcyODM5LDQxLjk3NTMwODY0MTk3NTMxLDApIi8+PHVzZSB4bGluazpocmVmPSIjYWIiIHRyYW5zZm9ybT0ibWF0cml4KDAuMDYxNzI4Mzk1MDYxNzI4MzksMCwwLDAuMDYxNzI4Mzk1MDYxNzI4MzksNDkuMzIwOTg3NjU0MzIwOTksMCkiLz48dXNlIHhsaW5rOmhyZWY9IiNhYyIgdHJhbnNmb3JtPSJtYXRyaXgoMC4wNjE3MjgzOTUwNjE3MjgzOSwwLDAsMC4wNjE3MjgzOTUwNjE3MjgzOSw2MS42NjY2NjY2NjY2NjY2NjQsMCkiLz48dXNlIHhsaW5rOmhyZWY9IiNhZCIgdHJhbnNmb3JtPSJtYXRyaXgoMC4wNjE3MjgzOTUwNjE3MjgzOSwwLDAsMC4wNjE3MjgzOTUwNjE3MjgzOSw2Ni41NDMyMDk4NzY1NDMyLDApIi8+PHVzZSB4bGluazpocmVmPSIjWCIgdHJhbnNmb3JtPSJtYXRyaXgoMC4wNjE3MjgzOTUwNjE3MjgzOSwwLDAsMC4wNjE3MjgzOTUwNjE3MjgzOSw3OC44ODg4ODg4ODg4ODg4OSwwKSIvPjwvZz48cGF0aCBpZD0iYWUiIGQ9Ik0xNDMgMEw3OS04NyA1Ni02OFYwSDI0di0yNjFoMzJ2MTYzbDgzLTkyaDM3bC03NyA4MkwxODEgMGgtMzgiIGZpbGw9IiMzMzMiLz48cGF0aCBpZD0iYWYiIGQ9Ik0xNzktMTkwTDkzIDMxQzc5IDU5IDU2IDgyIDEyIDczVjQ5YzM5IDYgNTMtMjAgNjQtNTBMMS0xOTBoMzRMOTItMzRsNTQtMTU2aDMzIiBmaWxsPSIjMzMzIi8+PHBhdGggaWQ9ImFnIiBkPSJNMjQwIDBsMi0yMThjLTIzIDc2LTU0IDE0NS04MCAyMThoLTIzTDU4LTIxOCA1OSAwSDMwdi0yNDhoNDRsNzcgMjExYzIxLTc1IDUxLTE0MCA3Ni0yMTFoNDNWMGgtMzAiIGZpbGw9IiMzMzMiLz48cGF0aCBpZD0iYWgiIGQ9Ik0xMTUtMTk0YzU1IDEgNzAgNDEgNzAgOThTMTY5IDIgMTE1IDRDODQgNCA2Ni05IDU1LTMwbDEgMTA1SDI0bC0xLTI2NWgzMWwyIDMwYzEwLTIxIDI4LTM0IDU5LTM0em0tOCAxNzRjNDAgMCA0NS0zNCA0NS03NXMtNi03My00NS03NGMtNDIgMC01MSAzMi01MSA3NiAwIDQzIDEwIDczIDUxIDczIiBmaWxsPSIjMzMzIi8+PGcgaWQ9ImMiPjx1c2UgeGxpbms6aHJlZj0iI1UiIHRyYW5zZm9ybT0ibWF0cml4KDAuMDYxNzI4Mzk1MDYxNzI4MzksMCwwLDAuMDYxNzI4Mzk1MDYxNzI4MzksMCwwKSIvPjx1c2UgeGxpbms6aHJlZj0iI2FlIiB0cmFuc2Zvcm09Im1hdHJpeCgwLjA2MTcyODM5NTA2MTcyODM5LDAsMCwwLjA2MTcyODM5NTA2MTcyODM5LDE0LjgxNDgxNDgxNDgxNDgxMywwKSIvPjx1c2UgeGxpbms6aHJlZj0iI2FmIiB0cmFuc2Zvcm09Im1hdHJpeCgwLjA2MTcyODM5NTA2MTcyODM5LDAsMCwwLjA2MTcyODM5NTA2MTcyODM5LDI1LjkyNTkyNTkyNTkyNTkyNCwwKSIvPjx1c2UgeGxpbms6aHJlZj0iI2FnIiB0cmFuc2Zvcm09Im1hdHJpeCgwLjA2MTcyODM5NTA2MTcyODM5LDAsMCwwLjA2MTcyODM5NTA2MTcyODM5LDM3LjAzNzAzNzAzNzAzNzA0LDApIi8+PHVzZSB4bGluazpocmVmPSIjVyIgdHJhbnNmb3JtPSJtYXRyaXgoMC4wNjE3MjgzOTUwNjE3MjgzOSwwLDAsMC4wNjE3MjgzOTUwNjE3MjgzOSw1NS40OTM4MjcxNjA0OTM4MiwwKSIvPjx1c2UgeGxpbms6aHJlZj0iI2FoIiB0cmFuc2Zvcm09Im1hdHJpeCgwLjA2MTcyODM5NTA2MTcyODM5LDAsMCwwLjA2MTcyODM5NTA2MTcyODM5LDY3LjgzOTUwNjE3MjgzOTUsMCkiLz48dXNlIHhsaW5rOmhyZWY9IiNhaCIgdHJhbnNmb3JtPSJtYXRyaXgoMC4wNjE3MjgzOTUwNjE3MjgzOSwwLDAsMC4wNjE3MjgzOTUwNjE3MjgzOSw4MC4xODUxODUxODUxODUxOSwwKSIvPjx1c2UgeGxpbms6aHJlZj0iI1oiIHRyYW5zZm9ybT0ibWF0cml4KDAuMDYxNzI4Mzk1MDYxNzI4MzksMCwwLDAuMDYxNzI4Mzk1MDYxNzI4MzksOTIuNTMwODY0MTk3NTMwODcsMCkiLz48dXNlIHhsaW5rOmhyZWY9IiNhYSIgdHJhbnNmb3JtPSJtYXRyaXgoMC4wNjE3MjgzOTUwNjE3MjgzOSwwLDAsMC4wNjE3MjgzOTUwNjE3MjgzOSwxMDQuODc2NTQzMjA5ODc2NTYsMCkiLz48L2c+PGcgaWQ9ImQiPjx1c2UgeGxpbms6aHJlZj0iI1UiIHRyYW5zZm9ybT0ibWF0cml4KDAuMDYxNzI4Mzk1MDYxNzI4MzksMCwwLDAuMDYxNzI4Mzk1MDYxNzI4MzksMCwwKSIvPjx1c2UgeGxpbms6aHJlZj0iI1YiIHRyYW5zZm9ybT0ibWF0cml4KDAuMDYxNzI4Mzk1MDYxNzI4MzksMCwwLDAuMDYxNzI4Mzk1MDYxNzI4MzksMTQuODE0ODE0ODE0ODE0ODEzLDApIi8+PHVzZSB4bGluazpocmVmPSIjVSIgdHJhbnNmb3JtPSJtYXRyaXgoMC4wNjE3MjgzOTUwNjE3MjgzOSwwLDAsMC4wNjE3MjgzOTUwNjE3MjgzOSwzMC44MDI0NjkxMzU4MDI0NywwKSIvPjx1c2UgeGxpbms6aHJlZj0iI1UiIHRyYW5zZm9ybT0ibWF0cml4KDAuMDYxNzI4Mzk1MDYxNzI4MzksMCwwLDAuMDYxNzI4Mzk1MDYxNzI4MzksNDUuNjE3MjgzOTUwNjE3MjgsMCkiLz48L2c+PHBhdGggaWQ9ImFpIiBkPSJNOTYtMTY5Yy00MCAwLTQ4IDMzLTQ4IDczczkgNzUgNDggNzVjMjQgMCA0MS0xNCA0My0zOGwzMiAyYy02IDM3LTMxIDYxLTc0IDYxLTU5IDAtNzYtNDEtODItOTktMTAtOTMgMTAxLTEzMSAxNDctNjQgNCA3IDUgMTQgNyAyMmwtMzIgM2MtNC0yMS0xNi0zNS00MS0zNSIgZmlsbD0iIzMzMyIvPjxwYXRoIGlkPSJhaiIgZD0iTTI0IDB2LTI2MWgzMlYwSDI0IiBmaWxsPSIjMzMzIi8+PHBhdGggaWQ9ImFrIiBkPSJNMTc3LTE5MEMxNjctNjUgMjE4IDEwMyA2NyA3MWMtMjMtNi0zOC0yMC00NC00M2wzMi01YzE1IDQ3IDEwMCAzMiA4OS0yOHYtMzBDMTMzLTE0IDExNSAxIDgzIDEgMjkgMSAxNS00MCAxNS05NWMwLTU2IDE2LTk3IDcxLTk4IDI5LTEgNDggMTYgNTkgMzUgMS0xMCAwLTIzIDItMzJoMzB6TTk0LTIyYzM2IDAgNTAtMzIgNTAtNzMgMC00Mi0xNC03NS01MC03NS0zOSAwLTQ2IDM0LTQ2IDc1czYgNzMgNDYgNzMiIGZpbGw9IiMzMzMiLz48ZyBpZD0iZSI+PHVzZSB4bGluazpocmVmPSIjYWkiIHRyYW5zZm9ybT0ibWF0cml4KDAuMDYxNzI4Mzk1MDYxNzI4MzksMCwwLDAuMDYxNzI4Mzk1MDYxNzI4MzksMCwwKSIvPjx1c2UgeGxpbms6aHJlZj0iI1ciIHRyYW5zZm9ybT0ibWF0cml4KDAuMDYxNzI4Mzk1MDYxNzI4MzksMCwwLDAuMDYxNzI4Mzk1MDYxNzI4MzksMTEuMTExMTExMTExMTExMTEsMCkiLz48dXNlIHhsaW5rOmhyZWY9IiNZIiB0cmFuc2Zvcm09Im1hdHJpeCgwLjA2MTcyODM5NTA2MTcyODM5LDAsMCwwLjA2MTcyODM5NTA2MTcyODM5LDIzLjQ1Njc5MDEyMzQ1Njc5LDApIi8+PHVzZSB4bGluazpocmVmPSIjVyIgdHJhbnNmb3JtPSJtYXRyaXgoMC4wNjE3MjgzOTUwNjE3MjgzOSwwLDAsMC4wNjE3MjgzOTUwNjE3MjgzOSwyOS42Mjk2Mjk2Mjk2Mjk2MywwKSIvPjx1c2UgeGxpbms6aHJlZj0iI2FqIiB0cmFuc2Zvcm09Im1hdHJpeCgwLjA2MTcyODM5NTA2MTcyODM5LDAsMCwwLjA2MTcyODM5NTA2MTcyODM5LDQxLjk3NTMwODY0MTk3NTMxLDApIi8+PHVzZSB4bGluazpocmVmPSIjYWIiIHRyYW5zZm9ybT0ibWF0cml4KDAuMDYxNzI4Mzk1MDYxNzI4MzksMCwwLDAuMDYxNzI4Mzk1MDYxNzI4MzksNDYuODUxODUxODUxODUxODU1LDApIi8+PHVzZSB4bGluazpocmVmPSIjYWsiIHRyYW5zZm9ybT0ibWF0cml4KDAuMDYxNzI4Mzk1MDYxNzI4MzksMCwwLDAuMDYxNzI4Mzk1MDYxNzI4MzksNTkuMTk3NTMwODY0MTk3NTMsMCkiLz48L2c+PHBhdGggaWQ9ImFsIiBkPSJNMTA2LTE2OUMzNC0xNjkgNjItNjcgNTcgMEgyNXYtMjYxaDMybC0xIDEwM2MxMi0yMSAyOC0zNiA2MS0zNiA4OSAwIDUzIDExNiA2MCAxOTRoLTMydi0xMjFjMi0zMi04LTQ5LTM5LTQ4IiBmaWxsPSIjMzMzIi8+PHBhdGggaWQ9ImFtIiBkPSJNMjEwLTE2OWMtNjcgMy0zOCAxMDUtNDQgMTY5aC0zMXYtMTIxYzAtMjktNS01MC0zNS00OEMzNC0xNjUgNjItNjUgNTYgMEgyNWwtMS0xOTBoMzBjMSAxMC0xIDI0IDIgMzIgMTAtNDQgOTktNTAgMTA3IDAgMTEtMjEgMjctMzUgNTgtMzYgODUtMiA0NyAxMTkgNTUgMTk0aC0zMXYtMTIxYzAtMjktNS00OS0zNS00OCIgZmlsbD0iIzMzMyIvPjxnIGlkPSJmIj48dXNlIHhsaW5rOmhyZWY9IiNhaCIgdHJhbnNmb3JtPSJtYXRyaXgoMC4wNjE3MjgzOTUwNjE3MjgzOSwwLDAsMC4wNjE3MjgzOTUwNjE3MjgzOSwwLDApIi8+PHVzZSB4bGluazpocmVmPSIjYWwiIHRyYW5zZm9ybT0ibWF0cml4KDAuMDYxNzI4Mzk1MDYxNzI4MzksMCwwLDAuMDYxNzI4Mzk1MDYxNzI4MzksMTIuMzQ1Njc5MDEyMzQ1Njc5LDApIi8+PHVzZSB4bGluazpocmVmPSIjYWIiIHRyYW5zZm9ybT0ibWF0cml4KDAuMDYxNzI4Mzk1MDYxNzI4MzksMCwwLDAuMDYxNzI4Mzk1MDYxNzI4MzksMjQuNjkxMzU4MDI0NjkxMzU4LDApIi8+PHVzZSB4bGluazpocmVmPSIjWSIgdHJhbnNmb3JtPSJtYXRyaXgoMC4wNjE3MjgzOTUwNjE3MjgzOSwwLDAsMC4wNjE3MjgzOTUwNjE3MjgzOSwzNy4wMzcwMzcwMzcwMzcwNCwwKSIvPjx1c2UgeGxpbms6aHJlZj0iI2FiIiB0cmFuc2Zvcm09Im1hdHJpeCgwLjA2MTcyODM5NTA2MTcyODM5LDAsMCwwLjA2MTcyODM5NTA2MTcyODM5LDQzLjIwOTg3NjU0MzIwOTg4LDApIi8+PHVzZSB4bGluazpocmVmPSIjYW0iIHRyYW5zZm9ybT0ibWF0cml4KDAuMDYxNzI4Mzk1MDYxNzI4MzksMCwwLDAuMDYxNzI4Mzk1MDYxNzI4MzksNTUuNTU1NTU1NTU1NTU1NTYsMCkiLz48dXNlIHhsaW5rOmhyZWY9IiNaIiB0cmFuc2Zvcm09Im1hdHJpeCgwLjA2MTcyODM5NTA2MTcyODM5LDAsMCwwLjA2MTcyODM5NTA2MTcyODM5LDc0LjAxMjM0NTY3OTAxMjM0LDApIi8+PHVzZSB4bGluazpocmVmPSIjWSIgdHJhbnNmb3JtPSJtYXRyaXgoMC4wNjE3MjgzOTUwNjE3MjgzOSwwLDAsMC4wNjE3MjgzOTUwNjE3MjgzOSw4Ni4zNTgwMjQ2OTEzNTgwMywwKSIvPjx1c2UgeGxpbms6aHJlZj0iI2FhIiB0cmFuc2Zvcm09Im1hdHJpeCgwLjA2MTcyODM5NTA2MTcyODM5LDAsMCwwLjA2MTcyODM5NTA2MTcyODM5LDkyLjUzMDg2NDE5NzUzMDg2LDApIi8+PHVzZSB4bGluazpocmVmPSIjYWYiIHRyYW5zZm9ybT0ibWF0cml4KDAuMDYxNzI4Mzk1MDYxNzI4MzksMCwwLDAuMDYxNzI4Mzk1MDYxNzI4MzksOTkuODc2NTQzMjA5ODc2NTQsMCkiLz48L2c+PHBhdGggaWQ9ImFuIiBkPSJNMTkwIDBMNTgtMjExIDU5IDBIMzB2LTI0OGgzOUwyMDItMzVsLTItMjEzaDMxVjBoLTQxIiBmaWxsPSIjMzMzIi8+PHBhdGggaWQ9ImFvIiBkPSJNMzAgMHYtMjQ4aDE4N3YyOEg2M3Y3OWgxNDR2MjdINjN2ODdoMTYyVjBIMzAiIGZpbGw9IiMzMzMiLz48cGF0aCBpZD0iYXAiIGQ9Ik0xNDAtMjUxYzgxIDAgMTIzIDQ2IDEyMyAxMjZDMjYzLTQ2IDIxOSA0IDE0MCA0IDU5IDQgMTctNDUgMTctMTI1czQyLTEyNiAxMjMtMTI2em0wIDIyN2M2MyAwIDg5LTQxIDg5LTEwMXMtMjktOTktODktOTljLTYxIDAtODkgMzktODkgOTlTNzktMjUgMTQwLTI0IiBmaWxsPSIjMzMzIi8+PGcgaWQ9ImciPjx1c2UgeGxpbms6aHJlZj0iI2FuIiB0cmFuc2Zvcm09Im1hdHJpeCgwLjA2MTcyODM5NTA2MTcyODM5LDAsMCwwLjA2MTcyODM5NTA2MTcyODM5LDAsMCkiLz48dXNlIHhsaW5rOmhyZWY9IiNhbyIgdHJhbnNmb3JtPSJtYXRyaXgoMC4wNjE3MjgzOTUwNjE3MjgzOSwwLDAsMC4wNjE3MjgzOTUwNjE3MjgzOSwxNS45ODc2NTQzMjA5ODc2NTMsMCkiLz48dXNlIHhsaW5rOmhyZWY9IiNhcCIgdHJhbnNmb3JtPSJtYXRyaXgoMC4wNjE3MjgzOTUwNjE3MjgzOSwwLDAsMC4wNjE3MjgzOTUwNjE3MjgzOSwzMC44MDI0NjkxMzU4MDI0NywwKSIvPjx1c2UgeGxpbms6aHJlZj0iI1giIHRyYW5zZm9ybT0ibWF0cml4KDAuMDYxNzI4Mzk1MDYxNzI4MzksMCwwLDAuMDYxNzI4Mzk1MDYxNzI4MzksNDguMDg2NDE5NzUzMDg2NDIsMCkiLz48L2c+PGcgaWQ9ImgiPjx1c2UgeGxpbms6aHJlZj0iI2FpIiB0cmFuc2Zvcm09Im1hdHJpeCgwLjA2MTcyODM5NTA2MTcyODM5LDAsMCwwLjA2MTcyODM5NTA2MTcyODM5LDAsMCkiLz48dXNlIHhsaW5rOmhyZWY9IiNXIiB0cmFuc2Zvcm09Im1hdHJpeCgwLjA2MTcyODM5NTA2MTcyODM5LDAsMCwwLjA2MTcyODM5NTA2MTcyODM5LDExLjExMTExMTExMTExMTExLDApIi8+PHVzZSB4bGluazpocmVmPSIjWSIgdHJhbnNmb3JtPSJtYXRyaXgoMC4wNjE3MjgzOTUwNjE3MjgzOSwwLDAsMC4wNjE3MjgzOTUwNjE3MjgzOSwyMy40NTY3OTAxMjM0NTY3OSwwKSIvPjx1c2UgeGxpbms6aHJlZj0iI1ciIHRyYW5zZm9ybT0ibWF0cml4KDAuMDYxNzI4Mzk1MDYxNzI4MzksMCwwLDAuMDYxNzI4Mzk1MDYxNzI4MzksMjkuNjI5NjI5NjI5NjI5NjMsMCkiLz48dXNlIHhsaW5rOmhyZWY9IiNhaiIgdHJhbnNmb3JtPSJtYXRyaXgoMC4wNjE3MjgzOTUwNjE3MjgzOSwwLDAsMC4wNjE3MjgzOTUwNjE3MjgzOSw0MS45NzUzMDg2NDE5NzUzMSwwKSIvPjx1c2UgeGxpbms6aHJlZj0iI2FiIiB0cmFuc2Zvcm09Im1hdHJpeCgwLjA2MTcyODM5NTA2MTcyODM5LDAsMCwwLjA2MTcyODM5NTA2MTcyODM5LDQ2Ljg1MTg1MTg1MTg1MTg1NSwwKSIvPjx1c2UgeGxpbms6aHJlZj0iI2FrIiB0cmFuc2Zvcm09Im1hdHJpeCgwLjA2MTcyODM5NTA2MTcyODM5LDAsMCwwLjA2MTcyODM5NTA2MTcyODM5LDU5LjE5NzUzMDg2NDE5NzUzLDApIi8+PC9nPjxwYXRoIGlkPSJhcSIgZD0iTTExNy0xOTRjODktNCA1MyAxMTYgNjAgMTk0aC0zMnYtMTIxYzAtMzEtOC00OS0zOS00OEMzNC0xNjcgNjItNjcgNTcgMEgyNWwtMS0xOTBoMzBjMSAxMC0xIDI0IDIgMzIgMTEtMjIgMjktMzUgNjEtMzYiIGZpbGw9IiMzMzMiLz48cGF0aCBpZD0iYXIiIGQ9Ik0xMDggMEg3MEwxLTE5MGgzNEw4OS0yNWw1Ni0xNjVoMzQiIGZpbGw9IiMzMzMiLz48cGF0aCBpZD0iYXMiIGQ9Ik04NCA0Qy01IDggMzAtMTEyIDIzLTE5MGgzMnYxMjBjMCAzMSA3IDUwIDM5IDQ5IDcyLTIgNDUtMTAxIDUwLTE2OWgzMWwxIDE5MGgtMzBjLTEtMTAgMS0yNS0yLTMzLTExIDIyLTI4IDM2LTYwIDM3IiBmaWxsPSIjMzMzIi8+PGcgaWQ9ImkiPjx1c2UgeGxpbms6aHJlZj0iI2FjIiB0cmFuc2Zvcm09Im1hdHJpeCgwLjA2MTcyODM5NTA2MTcyODM5LDAsMCwwLjA2MTcyODM5NTA2MTcyODM5LDAsMCkiLz48dXNlIHhsaW5rOmhyZWY9IiNhcSIgdHJhbnNmb3JtPSJtYXRyaXgoMC4wNjE3MjgzOTUwNjE3MjgzOSwwLDAsMC4wNjE3MjgzOTUwNjE3MjgzOSw0Ljg3NjU0MzIwOTg3NjU0MywwKSIvPjx1c2UgeGxpbms6aHJlZj0iI2FkIiB0cmFuc2Zvcm09Im1hdHJpeCgwLjA2MTcyODM5NTA2MTcyODM5LDAsMCwwLjA2MTcyODM5NTA2MTcyODM5LDE3LjIyMjIyMjIyMjIyMjIyLDApIi8+PHVzZSB4bGluazpocmVmPSIjYWMiIHRyYW5zZm9ybT0ibWF0cml4KDAuMDYxNzI4Mzk1MDYxNzI4MzksMCwwLDAuMDYxNzI4Mzk1MDYxNzI4MzksMjkuNTY3OTAxMjM0NTY3OSwwKSIvPjx1c2UgeGxpbms6aHJlZj0iI2FyIiB0cmFuc2Zvcm09Im1hdHJpeCgwLjA2MTcyODM5NTA2MTcyODM5LDAsMCwwLjA2MTcyODM5NTA2MTcyODM5LDM0LjQ0NDQ0NDQ0NDQ0NDQ0LDApIi8+PHVzZSB4bGluazpocmVmPSIjYWMiIHRyYW5zZm9ybT0ibWF0cml4KDAuMDYxNzI4Mzk1MDYxNzI4MzksMCwwLDAuMDYxNzI4Mzk1MDYxNzI4MzksNDUuNTU1NTU1NTU1NTU1NTYsMCkiLz48dXNlIHhsaW5rOmhyZWY9IiNhZCIgdHJhbnNmb3JtPSJtYXRyaXgoMC4wNjE3MjgzOTUwNjE3MjgzOSwwLDAsMC4wNjE3MjgzOTUwNjE3MjgzOSw1MC40MzIwOTg3NjU0MzIxLDApIi8+PHVzZSB4bGluazpocmVmPSIjYXMiIHRyYW5zZm9ybT0ibWF0cml4KDAuMDYxNzI4Mzk1MDYxNzI4MzksMCwwLDAuMDYxNzI4Mzk1MDYxNzI4MzksNjIuNzc3Nzc3Nzc3Nzc3NzgsMCkiLz48dXNlIHhsaW5rOmhyZWY9IiNXIiB0cmFuc2Zvcm09Im1hdHJpeCgwLjA2MTcyODM5NTA2MTcyODM5LDAsMCwwLjA2MTcyODM5NTA2MTcyODM5LDc1LjEyMzQ1Njc5MDEyMzQ2LDApIi8+PHVzZSB4bGluazpocmVmPSIjYWoiIHRyYW5zZm9ybT0ibWF0cml4KDAuMDYxNzI4Mzk1MDYxNzI4MzksMCwwLDAuMDYxNzI4Mzk1MDYxNzI4MzksODcuNDY5MTM1ODAyNDY5MTQsMCkiLz48L2c+PGcgaWQ9ImoiPjx1c2UgeGxpbms6aHJlZj0iI2FpIiB0cmFuc2Zvcm09Im1hdHJpeCgwLjA2MTcyODM5NTA2MTcyODM5LDAsMCwwLjA2MTcyODM5NTA2MTcyODM5LDAsMCkiLz48dXNlIHhsaW5rOmhyZWY9IiNhYiIgdHJhbnNmb3JtPSJtYXRyaXgoMC4wNjE3MjgzOTUwNjE3MjgzOSwwLDAsMC4wNjE3MjgzOTUwNjE3MjgzOSwxMS4xMTExMTExMTExMTExMSwwKSIvPjx1c2UgeGxpbms6aHJlZj0iI2FqIiB0cmFuc2Zvcm09Im1hdHJpeCgwLjA2MTcyODM5NTA2MTcyODM5LDAsMCwwLjA2MTcyODM5NTA2MTcyODM5LDIzLjQ1Njc5MDEyMzQ1Njc5LDApIi8+PHVzZSB4bGluazpocmVmPSIjYWIiIHRyYW5zZm9ybT0ibWF0cml4KDAuMDYxNzI4Mzk1MDYxNzI4MzksMCwwLDAuMDYxNzI4Mzk1MDYxNzI4MzksMjguMzMzMzMzMzMzMzMzMzM2LDApIi8+PHVzZSB4bGluazpocmVmPSIjYWEiIHRyYW5zZm9ybT0ibWF0cml4KDAuMDYxNzI4Mzk1MDYxNzI4MzksMCwwLDAuMDYxNzI4Mzk1MDYxNzI4MzksNDAuNjc5MDEyMzQ1Njc5MDEsMCkiLz48dXNlIHhsaW5rOmhyZWY9IiNYIiB0cmFuc2Zvcm09Im1hdHJpeCgwLjA2MTcyODM5NTA2MTcyODM5LDAsMCwwLjA2MTcyODM5NTA2MTcyODM5LDQ4LjAyNDY5MTM1ODAyNDY5LDApIi8+PC9nPjxwYXRoIGlkPSJhdCIgZD0iTTE5NCAwTDk1LTEyMCA2My05NVYwSDMwdi0yNDhoMzN2MTI0bDExOS0xMjRoNDBMMTE3LTE0MCAyMzYgMGgtNDIiIGZpbGw9IiMzMzMiLz48ZyBpZD0iayI+PHVzZSB4bGluazpocmVmPSIjVSIgdHJhbnNmb3JtPSJtYXRyaXgoMC4wNjE3MjgzOTUwNjE3MjgzOSwwLDAsMC4wNjE3MjgzOTUwNjE3MjgzOSwwLDApIi8+PHVzZSB4bGluazpocmVmPSIjYXQiIHRyYW5zZm9ybT0ibWF0cml4KDAuMDYxNzI4Mzk1MDYxNzI4MzksMCwwLDAuMDYxNzI4Mzk1MDYxNzI4MzksMTQuODE0ODE0ODE0ODE0ODEzLDApIi8+PHVzZSB4bGluazpocmVmPSIjYWciIHRyYW5zZm9ybT0ibWF0cml4KDAuMDYxNzI4Mzk1MDYxNzI4MzksMCwwLDAuMDYxNzI4Mzk1MDYxNzI4MzksMjkuNjI5NjI5NjI5NjI5NjI2LDApIi8+PC9nPjxnIGlkPSJsIj48dXNlIHhsaW5rOmhyZWY9IiNhZyIgdHJhbnNmb3JtPSJtYXRyaXgoMC4wNjE3MjgzOTUwNjE3MjgzOSwwLDAsMC4wNjE3MjgzOTUwNjE3MjgzOSwwLDApIi8+PHVzZSB4bGluazpocmVmPSIjWiIgdHJhbnNmb3JtPSJtYXRyaXgoMC4wNjE3MjgzOTUwNjE3MjgzOSwwLDAsMC4wNjE3MjgzOTUwNjE3MjgzOSwxOC40NTY3OTAxMjM0NTY3ODgsMCkiLz48dXNlIHhsaW5rOmhyZWY9IiNhYSIgdHJhbnNmb3JtPSJtYXRyaXgoMC4wNjE3MjgzOTUwNjE3MjgzOSwwLDAsMC4wNjE3MjgzOTUwNjE3MjgzOSwzMC44MDI0NjkxMzU4MDI0NywwKSIvPjx1c2UgeGxpbms6aHJlZj0iI2FrIiB0cmFuc2Zvcm09Im1hdHJpeCgwLjA2MTcyODM5NTA2MTcyODM5LDAsMCwwLjA2MTcyODM5NTA2MTcyODM5LDM4LjE0ODE0ODE0ODE0ODE0NSwwKSIvPjx1c2UgeGxpbms6aHJlZj0iI1oiIHRyYW5zZm9ybT0ibWF0cml4KDAuMDYxNzI4Mzk1MDYxNzI4MzksMCwwLDAuMDYxNzI4Mzk1MDYxNzI4MzksNTAuNDkzODI3MTYwNDkzODIsMCkiLz48L2c+PHBhdGggaWQ9ImF1IiBkPSJNMTAxLTIzNGMtMzEtOS00MiAxMC0zOCA0NGgzOHYyM0g2M1YwSDMydi0xNjdINXYtMjNoMjdjLTctNTIgMTctODIgNjktNjh2MjQiIGZpbGw9IiMzMzMiLz48ZyBpZD0ibSI+PHVzZSB4bGluazpocmVmPSIjYXUiIHRyYW5zZm9ybT0ibWF0cml4KDAuMDYxNzI4Mzk1MDYxNzI4MzksMCwwLDAuMDYxNzI4Mzk1MDYxNzI4MzksMCwwKSIvPjx1c2UgeGxpbms6aHJlZj0iI2FjIiB0cmFuc2Zvcm09Im1hdHJpeCgwLjA2MTcyODM5NTA2MTcyODM5LDAsMCwwLjA2MTcyODM5NTA2MTcyODM5LDYuMTcyODM5NTA2MTcyODM5LDApIi8+PHVzZSB4bGluazpocmVmPSIjYXEiIHRyYW5zZm9ybT0ibWF0cml4KDAuMDYxNzI4Mzk1MDYxNzI4MzksMCwwLDAuMDYxNzI4Mzk1MDYxNzI4MzksMTEuMDQ5MzgyNzE2MDQ5MzgzLDApIi8+PHVzZSB4bGluazpocmVmPSIjVyIgdHJhbnNmb3JtPSJtYXRyaXgoMC4wNjE3MjgzOTUwNjE3MjgzOSwwLDAsMC4wNjE3MjgzOTUwNjE3MjgzOSwyMy4zOTUwNjE3MjgzOTUwNjMsMCkiLz48dXNlIHhsaW5rOmhyZWY9IiNhaiIgdHJhbnNmb3JtPSJtYXRyaXgoMC4wNjE3MjgzOTUwNjE3MjgzOSwwLDAsMC4wNjE3MjgzOTUwNjE3MjgzOSwzNS43NDA3NDA3NDA3NDA3NCwwKSIvPjwvZz48ZyBpZD0ibiI+PHVzZSB4bGluazpocmVmPSIjVyIgdHJhbnNmb3JtPSJtYXRyaXgoMC4wNjE3MjgzOTUwNjE3MjgzOSwwLDAsMC4wNjE3MjgzOTUwNjE3MjgzOSwwLDApIi8+PHVzZSB4bGluazpocmVmPSIjYXIiIHRyYW5zZm9ybT0ibWF0cml4KDAuMDYxNzI4Mzk1MDYxNzI4MzksMCwwLDAuMDYxNzI4Mzk1MDYxNzI4MzksMTIuMzQ1Njc5MDEyMzQ1Njc5LDApIi8+PHVzZSB4bGluazpocmVmPSIjWiIgdHJhbnNmb3JtPSJtYXRyaXgoMC4wNjE3MjgzOTUwNjE3MjgzOSwwLDAsMC4wNjE3MjgzOTUwNjE3MjgzOSwyMy40NTY3OTAxMjM0NTY3OSwwKSIvPjx1c2UgeGxpbms6aHJlZj0iI2FhIiB0cmFuc2Zvcm09Im1hdHJpeCgwLjA2MTcyODM5NTA2MTcyODM5LDAsMCwwLjA2MTcyODM5NTA2MTcyODM5LDM1LjgwMjQ2OTEzNTgwMjQ3LDApIi8+PHVzZSB4bGluazpocmVmPSIjVyIgdHJhbnNmb3JtPSJtYXRyaXgoMC4wNjE3MjgzOTUwNjE3MjgzOSwwLDAsMC4wNjE3MjgzOTUwNjE3MjgzOSw0My4xNDgxNDgxNDgxNDgxNDUsMCkiLz48dXNlIHhsaW5rOmhyZWY9IiNhayIgdHJhbnNmb3JtPSJtYXRyaXgoMC4wNjE3MjgzOTUwNjE3MjgzOSwwLDAsMC4wNjE3MjgzOTUwNjE3MjgzOSw1NS40OTM4MjcxNjA0OTM4MiwwKSIvPjx1c2UgeGxpbms6aHJlZj0iI1oiIHRyYW5zZm9ybT0ibWF0cml4KDAuMDYxNzI4Mzk1MDYxNzI4MzksMCwwLDAuMDYxNzI4Mzk1MDYxNzI4MzksNjcuODM5NTA2MTcyODM5NSwwKSIvPjwvZz48ZyBpZD0ibyI+PHVzZSB4bGluazpocmVmPSIjYWkiIHRyYW5zZm9ybT0ibWF0cml4KDAuMDYxNzI4Mzk1MDYxNzI4MzksMCwwLDAuMDYxNzI4Mzk1MDYxNzI4MzksMCwwKSIvPjx1c2UgeGxpbms6aHJlZj0iI2FiIiB0cmFuc2Zvcm09Im1hdHJpeCgwLjA2MTcyODM5NTA2MTcyODM5LDAsMCwwLjA2MTcyODM5NTA2MTcyODM5LDExLjExMTExMTExMTExMTExLDApIi8+PHVzZSB4bGluazpocmVmPSIjYWoiIHRyYW5zZm9ybT0ibWF0cml4KDAuMDYxNzI4Mzk1MDYxNzI4MzksMCwwLDAuMDYxNzI4Mzk1MDYxNzI4MzksMjMuNDU2NzkwMTIzNDU2NzksMCkiLz48dXNlIHhsaW5rOmhyZWY9IiNhYiIgdHJhbnNmb3JtPSJtYXRyaXgoMC4wNjE3MjgzOTUwNjE3MjgzOSwwLDAsMC4wNjE3MjgzOTUwNjE3MjgzOSwyOC4zMzMzMzMzMzMzMzMzMzYsMCkiLz48dXNlIHhsaW5rOmhyZWY9IiNhYSIgdHJhbnNmb3JtPSJtYXRyaXgoMC4wNjE3MjgzOTUwNjE3MjgzOSwwLDAsMC4wNjE3MjgzOTUwNjE3MjgzOSw0MC42NzkwMTIzNDU2NzkwMSwwKSIvPjwvZz48ZyBpZD0icCI+PHVzZSB4bGluazpocmVmPSIjYWkiIHRyYW5zZm9ybT0ibWF0cml4KDAuMDYxNzI4Mzk1MDYxNzI4MzksMCwwLDAuMDYxNzI4Mzk1MDYxNzI4MzksMCwwKSIvPjx1c2UgeGxpbms6aHJlZj0iI2FiIiB0cmFuc2Zvcm09Im1hdHJpeCgwLjA2MTcyODM5NTA2MTcyODM5LDAsMCwwLjA2MTcyODM5NTA2MTcyODM5LDExLjExMTExMTExMTExMTExLDApIi8+PHVzZSB4bGluazpocmVmPSIjYW0iIHRyYW5zZm9ybT0ibWF0cml4KDAuMDYxNzI4Mzk1MDYxNzI4MzksMCwwLDAuMDYxNzI4Mzk1MDYxNzI4MzksMjMuNDU2NzkwMTIzNDU2NzksMCkiLz48dXNlIHhsaW5rOmhyZWY9IiNhaCIgdHJhbnNmb3JtPSJtYXRyaXgoMC4wNjE3MjgzOTUwNjE3MjgzOSwwLDAsMC4wNjE3MjgzOTUwNjE3MjgzOSw0MS45MTM1ODAyNDY5MTM1OCwwKSIvPjx1c2UgeGxpbms6aHJlZj0iI2FzIiB0cmFuc2Zvcm09Im1hdHJpeCgwLjA2MTcyODM5NTA2MTcyODM5LDAsMCwwLjA2MTcyODM5NTA2MTcyODM5LDU0LjI1OTI1OTI1OTI1OTI2LDApIi8+PHVzZSB4bGluazpocmVmPSIjWSIgdHJhbnNmb3JtPSJtYXRyaXgoMC4wNjE3MjgzOTUwNjE3MjgzOSwwLDAsMC4wNjE3MjgzOTUwNjE3MjgzOSw2Ni42MDQ5MzgyNzE2MDQ5NCwwKSIvPjx1c2UgeGxpbms6aHJlZj0iI1oiIHRyYW5zZm9ybT0ibWF0cml4KDAuMDYxNzI4Mzk1MDYxNzI4MzksMCwwLDAuMDYxNzI4Mzk1MDYxNzI4MzksNzIuNzc3Nzc3Nzc3Nzc3NzcsMCkiLz48dXNlIHhsaW5rOmhyZWY9IiNhZCIgdHJhbnNmb3JtPSJtYXRyaXgoMC4wNjE3MjgzOTUwNjE3MjgzOSwwLDAsMC4wNjE3MjgzOTUwNjE3MjgzOSw4NS4xMjM0NTY3OTAxMjM0NiwwKSIvPjwvZz48ZyBpZD0icSI+PHVzZSB4bGluazpocmVmPSIjYWkiIHRyYW5zZm9ybT0ibWF0cml4KDAuMDYxNzI4Mzk1MDYxNzI4MzksMCwwLDAuMDYxNzI4Mzk1MDYxNzI4MzksMCwwKSIvPjx1c2UgeGxpbms6aHJlZj0iI1ciIHRyYW5zZm9ybT0ibWF0cml4KDAuMDYxNzI4Mzk1MDYxNzI4MzksMCwwLDAuMDYxNzI4Mzk1MDYxNzI4MzksMTEuMTExMTExMTExMTExMTEsMCkiLz48dXNlIHhsaW5rOmhyZWY9IiNZIiB0cmFuc2Zvcm09Im1hdHJpeCgwLjA2MTcyODM5NTA2MTcyODM5LDAsMCwwLjA2MTcyODM5NTA2MTcyODM5LDIzLjQ1Njc5MDEyMzQ1Njc5LDApIi8+PHVzZSB4bGluazpocmVmPSIjYWoiIHRyYW5zZm9ybT0ibWF0cml4KDAuMDYxNzI4Mzk1MDYxNzI4MzksMCwwLDAuMDYxNzI4Mzk1MDYxNzI4MzksMjkuNjI5NjI5NjI5NjI5NjMsMCkiLz48dXNlIHhsaW5rOmhyZWY9IiNhYiIgdHJhbnNmb3JtPSJtYXRyaXgoMC4wNjE3MjgzOTUwNjE3MjgzOSwwLDAsMC4wNjE3MjgzOTUwNjE3MjgzOSwzNC41MDYxNzI4Mzk1MDYxNywwKSIvPjx1c2UgeGxpbms6aHJlZj0iI2FrIiB0cmFuc2Zvcm09Im1hdHJpeCgwLjA2MTcyODM5NTA2MTcyODM5LDAsMCwwLjA2MTcyODM5NTA2MTcyODM5LDQ2Ljg1MTg1MTg1MTg1MTg1LDApIi8+PC9nPjxnIGlkPSJyIj48dXNlIHhsaW5rOmhyZWY9IiNXIiB0cmFuc2Zvcm09Im1hdHJpeCgwLjA2MTcyODM5NTA2MTcyODM5LDAsMCwwLjA2MTcyODM5NTA2MTcyODM5LDAsMCkiLz48dXNlIHhsaW5rOmhyZWY9IiNhciIgdHJhbnNmb3JtPSJtYXRyaXgoMC4wNjE3MjgzOTUwNjE3MjgzOSwwLDAsMC4wNjE3MjgzOTUwNjE3MjgzOSwxMi4zNDU2NzkwMTIzNDU2NzksMCkiLz48dXNlIHhsaW5rOmhyZWY9IiNXIiB0cmFuc2Zvcm09Im1hdHJpeCgwLjA2MTcyODM5NTA2MTcyODM5LDAsMCwwLjA2MTcyODM5NTA2MTcyODM5LDIzLjQ1Njc5MDEyMzQ1Njc5LDApIi8+PHVzZSB4bGluazpocmVmPSIjYWEiIHRyYW5zZm9ybT0ibWF0cml4KDAuMDYxNzI4Mzk1MDYxNzI4MzksMCwwLDAuMDYxNzI4Mzk1MDYxNzI4MzksMzUuODAyNDY5MTM1ODAyNDcsMCkiLz48dXNlIHhsaW5rOmhyZWY9IiNXIiB0cmFuc2Zvcm09Im1hdHJpeCgwLjA2MTcyODM5NTA2MTcyODM5LDAsMCwwLjA2MTcyODM5NTA2MTcyODM5LDQzLjE0ODE0ODE0ODE0ODE0NSwwKSIvPjx1c2UgeGxpbms6aHJlZj0iI2FrIiB0cmFuc2Zvcm09Im1hdHJpeCgwLjA2MTcyODM5NTA2MTcyODM5LDAsMCwwLjA2MTcyODM5NTA2MTcyODM5LDU1LjQ5MzgyNzE2MDQ5MzgyLDApIi8+PHVzZSB4bGluazpocmVmPSIjWiIgdHJhbnNmb3JtPSJtYXRyaXgoMC4wNjE3MjgzOTUwNjE3MjgzOSwwLDAsMC4wNjE3MjgzOTUwNjE3MjgzOSw2Ny44Mzk1MDYxNzI4Mzk1LDApIi8+PC9nPjxwYXRoIGlkPSJhdiIgZD0iTTMzIDB2LTI0OGgzNFYwSDMzIiBmaWxsPSIjMzMzIi8+PGcgaWQ9InMiPjx1c2UgeGxpbms6aHJlZj0iI2F2IiB0cmFuc2Zvcm09Im1hdHJpeCgwLjA2MTcyODM5NTA2MTcyODM5LDAsMCwwLjA2MTcyODM5NTA2MTcyODM5LDAsMCkiLz48dXNlIHhsaW5rOmhyZWY9IiNhbSIgdHJhbnNmb3JtPSJtYXRyaXgoMC4wNjE3MjgzOTUwNjE3MjgzOSwwLDAsMC4wNjE3MjgzOTUwNjE3MjgzOSw2LjE3MjgzOTUwNjE3MjgzOSwwKSIvPjx1c2UgeGxpbms6aHJlZj0iI1ciIHRyYW5zZm9ybT0ibWF0cml4KDAuMDYxNzI4Mzk1MDYxNzI4MzksMCwwLDAuMDYxNzI4Mzk1MDYxNzI4MzksMjQuNjI5NjI5NjI5NjI5NjI2LDApIi8+PHVzZSB4bGluazpocmVmPSIjYWsiIHRyYW5zZm9ybT0ibWF0cml4KDAuMDYxNzI4Mzk1MDYxNzI4MzksMCwwLDAuMDYxNzI4Mzk1MDYxNzI4MzksMzYuOTc1MzA4NjQxOTc1MywwKSIvPjx1c2UgeGxpbms6aHJlZj0iI1oiIHRyYW5zZm9ybT0ibWF0cml4KDAuMDYxNzI4Mzk1MDYxNzI4MzksMCwwLDAuMDYxNzI4Mzk1MDYxNzI4MzksNDkuMzIwOTg3NjU0MzIwOTgsMCkiLz48L2c+PHBhdGggaWQ9ImF3IiBkPSJNMTI3LTIyMFYwSDkzdi0yMjBIOHYtMjhoMjA0djI4aC04NSIgZmlsbD0iIzMzMyIvPjxwYXRoIGlkPSJheCIgZD0iTTE0MSAwTDkwLTc4IDM4IDBINGw2OC05OC02NS05MmgzNWw0OCA3NCA0Ny03NGgzNWwtNjQgOTIgNjggOThoLTM1IiBmaWxsPSIjMzMzIi8+PGcgaWQ9InQiPjx1c2UgeGxpbms6aHJlZj0iI2F3IiB0cmFuc2Zvcm09Im1hdHJpeCgwLjA2MTcyODM5NTA2MTcyODM5LDAsMCwwLjA2MTcyODM5NTA2MTcyODM5LDAsMCkiLz48dXNlIHhsaW5rOmhyZWY9IiNXIiB0cmFuc2Zvcm09Im1hdHJpeCgwLjA2MTcyODM5NTA2MTcyODM5LDAsMCwwLjA2MTcyODM5NTA2MTcyODM5LDExLjA0OTM4MjcxNjA0OTM4MSwwKSIvPjx1c2UgeGxpbms6aHJlZj0iI2F4IiB0cmFuc2Zvcm09Im1hdHJpeCgwLjA2MTcyODM5NTA2MTcyODM5LDAsMCwwLjA2MTcyODM5NTA2MTcyODM5LDIzLjM5NTA2MTcyODM5NTA2LDApIi8+PHVzZSB4bGluazpocmVmPSIjYWIiIHRyYW5zZm9ybT0ibWF0cml4KDAuMDYxNzI4Mzk1MDYxNzI4MzksMCwwLDAuMDYxNzI4Mzk1MDYxNzI4MzksMzQuNTA2MTcyODM5NTA2MTcsMCkiLz48dXNlIHhsaW5rOmhyZWY9IiNhcSIgdHJhbnNmb3JtPSJtYXRyaXgoMC4wNjE3MjgzOTUwNjE3MjgzOSwwLDAsMC4wNjE3MjgzOTUwNjE3MjgzOSw0Ni44NTE4NTE4NTE4NTE4NSwwKSIvPjx1c2UgeGxpbms6aHJlZj0iI2FiIiB0cmFuc2Zvcm09Im1hdHJpeCgwLjA2MTcyODM5NTA2MTcyODM5LDAsMCwwLjA2MTcyODM5NTA2MTcyODM5LDU5LjE5NzUzMDg2NDE5NzUyNSwwKSIvPjx1c2UgeGxpbms6aHJlZj0iI2FtIiB0cmFuc2Zvcm09Im1hdHJpeCgwLjA2MTcyODM5NTA2MTcyODM5LDAsMCwwLjA2MTcyODM5NTA2MTcyODM5LDcxLjU0MzIwOTg3NjU0MzIsMCkiLz48dXNlIHhsaW5rOmhyZWY9IiNhZiIgdHJhbnNmb3JtPSJtYXRyaXgoMC4wNjE3MjgzOTUwNjE3MjgzOSwwLDAsMC4wNjE3MjgzOTUwNjE3MjgzOSw4OS45OTk5OTk5OTk5OTk5OSwwKSIvPjwvZz48ZyBpZD0idSI+PHVzZSB4bGluazpocmVmPSIjYWMiIHRyYW5zZm9ybT0ibWF0cml4KDAuMDYxNzI4Mzk1MDYxNzI4MzksMCwwLDAuMDYxNzI4Mzk1MDYxNzI4MzksMCwwKSIvPjx1c2UgeGxpbms6aHJlZj0iI2FtIiB0cmFuc2Zvcm09Im1hdHJpeCgwLjA2MTcyODM5NTA2MTcyODM5LDAsMCwwLjA2MTcyODM5NTA2MTcyODM5LDQuODc2NTQzMjA5ODc2NTQzLDApIi8+PHVzZSB4bGluazpocmVmPSIjVyIgdHJhbnNmb3JtPSJtYXRyaXgoMC4wNjE3MjgzOTUwNjE3MjgzOSwwLDAsMC4wNjE3MjgzOTUwNjE3MjgzOSwyMy4zMzMzMzMzMzMzMzMzMywwKSIvPjx1c2UgeGxpbms6aHJlZj0iI2FrIiB0cmFuc2Zvcm09Im1hdHJpeCgwLjA2MTcyODM5NTA2MTcyODM5LDAsMCwwLjA2MTcyODM5NTA2MTcyODM5LDM1LjY3OTAxMjM0NTY3OTAwNiwwKSIvPjx1c2UgeGxpbms6aHJlZj0iI1oiIHRyYW5zZm9ybT0ibWF0cml4KDAuMDYxNzI4Mzk1MDYxNzI4MzksMCwwLDAuMDYxNzI4Mzk1MDYxNzI4MzksNDguMDI0NjkxMzU4MDI0NjgsMCkiLz48L2c+PHBhdGggaWQ9ImF5IiBkPSJNMTE1LTE5NGM1MyAwIDY5IDM5IDcwIDk4IDAgNjYtMjMgMTAwLTcwIDEwMEM4NCAzIDY2LTcgNTYtMzBMNTQgMEgyM2wxLTI2MWgzMnYxMDFjMTAtMjMgMjgtMzQgNTktMzR6bS04IDE3NGM0MCAwIDQ1LTM0IDQ1LTc1IDAtNDAtNS03NS00NS03NC00MiAwLTUxIDMyLTUxIDc2IDAgNDMgMTAgNzMgNTEgNzMiIGZpbGw9IiMzMzMiLz48ZyBpZD0idiI+PHVzZSB4bGluazpocmVmPSIjYXAiIHRyYW5zZm9ybT0ibWF0cml4KDAuMDYxNzI4Mzk1MDYxNzI4MzksMCwwLDAuMDYxNzI4Mzk1MDYxNzI4MzksMCwwKSIvPjx1c2UgeGxpbms6aHJlZj0iI2FhIiB0cmFuc2Zvcm09Im1hdHJpeCgwLjA2MTcyODM5NTA2MTcyODM5LDAsMCwwLjA2MTcyODM5NTA2MTcyODM5LDE3LjI4Mzk1MDYxNzI4Mzk1LDApIi8+PHVzZSB4bGluazpocmVmPSIjYXkiIHRyYW5zZm9ybT0ibWF0cml4KDAuMDYxNzI4Mzk1MDYxNzI4MzksMCwwLDAuMDYxNzI4Mzk1MDYxNzI4MzksMjQuNjI5NjI5NjI5NjI5NjI2LDApIi8+PHVzZSB4bGluazpocmVmPSIjYWMiIHRyYW5zZm9ybT0ibWF0cml4KDAuMDYxNzI4Mzk1MDYxNzI4MzksMCwwLDAuMDYxNzI4Mzk1MDYxNzI4MzksMzYuOTc1MzA4NjQxOTc1MywwKSIvPjx1c2UgeGxpbms6aHJlZj0iI1kiIHRyYW5zZm9ybT0ibWF0cml4KDAuMDYxNzI4Mzk1MDYxNzI4MzksMCwwLDAuMDYxNzI4Mzk1MDYxNzI4MzksNDEuODUxODUxODUxODUxODUsMCkiLz48dXNlIHhsaW5rOmhyZWY9IiNXIiB0cmFuc2Zvcm09Im1hdHJpeCgwLjA2MTcyODM5NTA2MTcyODM5LDAsMCwwLjA2MTcyODM5NTA2MTcyODM5LDQ4LjAyNDY5MTM1ODAyNDY5LDApIi8+PHVzZSB4bGluazpocmVmPSIjYWoiIHRyYW5zZm9ybT0ibWF0cml4KDAuMDYxNzI4Mzk1MDYxNzI4MzksMCwwLDAuMDYxNzI4Mzk1MDYxNzI4MzksNjAuMzcwMzcwMzcwMzcwMzcsMCkiLz48L2c+PGcgaWQ9InciPjx1c2UgeGxpbms6aHJlZj0iI1oiIHRyYW5zZm9ybT0ibWF0cml4KDAuMDYxNzI4Mzk1MDYxNzI4MzksMCwwLDAuMDYxNzI4Mzk1MDYxNzI4MzksMCwwKSIvPjx1c2UgeGxpbms6aHJlZj0iI2FqIiB0cmFuc2Zvcm09Im1hdHJpeCgwLjA2MTcyODM5NTA2MTcyODM5LDAsMCwwLjA2MTcyODM5NTA2MTcyODM5LDEyLjM0NTY3OTAxMjM0NTY3OSwwKSIvPjx1c2UgeGxpbms6aHJlZj0iI1oiIHRyYW5zZm9ybT0ibWF0cml4KDAuMDYxNzI4Mzk1MDYxNzI4MzksMCwwLDAuMDYxNzI4Mzk1MDYxNzI4MzksMTcuMjIyMjIyMjIyMjIyMjIsMCkiLz48dXNlIHhsaW5rOmhyZWY9IiNhbSIgdHJhbnNmb3JtPSJtYXRyaXgoMC4wNjE3MjgzOTUwNjE3MjgzOSwwLDAsMC4wNjE3MjgzOTUwNjE3MjgzOSwyOS41Njc5MDEyMzQ1Njc5LDApIi8+PHVzZSB4bGluazpocmVmPSIjWiIgdHJhbnNmb3JtPSJtYXRyaXgoMC4wNjE3MjgzOTUwNjE3MjgzOSwwLDAsMC4wNjE3MjgzOTUwNjE3MjgzOSw0OC4wMjQ2OTEzNTgwMjQ2OCwwKSIvPjx1c2UgeGxpbms6aHJlZj0iI2FxIiB0cmFuc2Zvcm09Im1hdHJpeCgwLjA2MTcyODM5NTA2MTcyODM5LDAsMCwwLjA2MTcyODM5NTA2MTcyODM5LDYwLjM3MDM3MDM3MDM3MDM2LDApIi8+PHVzZSB4bGluazpocmVmPSIjWSIgdHJhbnNmb3JtPSJtYXRyaXgoMC4wNjE3MjgzOTUwNjE3MjgzOSwwLDAsMC4wNjE3MjgzOTUwNjE3MjgzOSw3Mi43MTYwNDkzODI3MTYwNCwwKSIvPjx1c2UgeGxpbms6aHJlZj0iI1giIHRyYW5zZm9ybT0ibWF0cml4KDAuMDYxNzI4Mzk1MDYxNzI4MzksMCwwLDAuMDYxNzI4Mzk1MDYxNzI4MzksNzguODg4ODg4ODg4ODg4ODcsMCkiLz48L2c+PHBhdGggaWQ9ImF6IiBkPSJNMjMzLTE3N2MtMSA0MS0yMyA2NC02MCA3MEwyNDMgMGgtMzhsLTY1LTEwM0g2M1YwSDMwdi0yNDhjODggMyAyMDUtMjEgMjAzIDcxek02My0xMjljNjAtMiAxMzcgMTMgMTM3LTQ3IDAtNjEtODAtNDItMTM3LTQ1djkyIiBmaWxsPSIjMzMzIi8+PGcgaWQ9IngiPjx1c2UgeGxpbms6aHJlZj0iI2F6IiB0cmFuc2Zvcm09Im1hdHJpeCgwLjA2MTcyODM5NTA2MTcyODM5LDAsMCwwLjA2MTcyODM5NTA2MTcyODM5LDAsMCkiLz48dXNlIHhsaW5rOmhyZWY9IiNaIiB0cmFuc2Zvcm09Im1hdHJpeCgwLjA2MTcyODM5NTA2MTcyODM5LDAsMCwwLjA2MTcyODM5NTA2MTcyODM5LDE1Ljk4NzY1NDMyMDk4NzY1MywwKSIvPjx1c2UgeGxpbms6aHJlZj0iI2FrIiB0cmFuc2Zvcm09Im1hdHJpeCgwLjA2MTcyODM5NTA2MTcyODM5LDAsMCwwLjA2MTcyODM5NTA2MTcyODM5LDI4LjMzMzMzMzMzMzMzMzMzMiwwKSIvPjx1c2UgeGxpbms6aHJlZj0iI2FjIiB0cmFuc2Zvcm09Im1hdHJpeCgwLjA2MTcyODM5NTA2MTcyODM5LDAsMCwwLjA2MTcyODM5NTA2MTcyODM5LDQwLjY3OTAxMjM0NTY3OTAxLDApIi8+PHVzZSB4bGluazpocmVmPSIjYWIiIHRyYW5zZm9ybT0ibWF0cml4KDAuMDYxNzI4Mzk1MDYxNzI4MzksMCwwLDAuMDYxNzI4Mzk1MDYxNzI4MzksNDUuNTU1NTU1NTU1NTU1NTYsMCkiLz48dXNlIHhsaW5rOmhyZWY9IiNhcSIgdHJhbnNmb3JtPSJtYXRyaXgoMC4wNjE3MjgzOTUwNjE3MjgzOSwwLDAsMC4wNjE3MjgzOTUwNjE3MjgzOSw1Ny45MDEyMzQ1Njc5MDEyMzQsMCkiLz48dXNlIHhsaW5rOmhyZWY9IiNYIiB0cmFuc2Zvcm09Im1hdHJpeCgwLjA2MTcyODM5NTA2MTcyODM5LDAsMCwwLjA2MTcyODM5NTA2MTcyODM5LDcwLjI0NjkxMzU4MDI0NjkxLDApIi8+PC9nPjxwYXRoIGlkPSJhQSIgZD0iTTY4LTM4YzEgMzQgMCA2NS0xNCA4NEgzMmM5LTEzIDE3LTI2IDE3LTQ2SDMzdi0zOGgzNSIgZmlsbD0iIzMzMyIvPjxnIGlkPSJ5Ij48dXNlIHhsaW5rOmhyZWY9IiNhZyIgdHJhbnNmb3JtPSJtYXRyaXgoMC4wNjE3MjgzOTUwNjE3MjgzOSwwLDAsMC4wNjE3MjgzOTUwNjE3MjgzOSwwLDApIi8+PHVzZSB4bGluazpocmVmPSIjYXAiIHRyYW5zZm9ybT0ibWF0cml4KDAuMDYxNzI4Mzk1MDYxNzI4MzksMCwwLDAuMDYxNzI4Mzk1MDYxNzI4MzksMTguNDU2NzkwMTIzNDU2Nzg4LDApIi8+PHVzZSB4bGluazpocmVmPSIjYXYiIHRyYW5zZm9ybT0ibWF0cml4KDAuMDYxNzI4Mzk1MDYxNzI4MzksMCwwLDAuMDYxNzI4Mzk1MDYxNzI4MzksMzUuNzQwNzQwNzQwNzQwNzMsMCkiLz48dXNlIHhsaW5rOmhyZWY9IiNWIiB0cmFuc2Zvcm09Im1hdHJpeCgwLjA2MTcyODM5NTA2MTcyODM5LDAsMCwwLjA2MTcyODM5NTA2MTcyODM5LDQxLjkxMzU4MDI0NjkxMzU3NSwwKSIvPjx1c2UgeGxpbms6aHJlZj0iI2FBIiB0cmFuc2Zvcm09Im1hdHJpeCgwLjA2MTcyODM5NTA2MTcyODM5LDAsMCwwLjA2MTcyODM5NTA2MTcyODM5LDU3LjkwMTIzNDU2NzkwMTIzLDApIi8+PC9nPjxwYXRoIGlkPSJhQiIgZD0iTTE5NyAwdi0xMTVINjNWMEgzMHYtMjQ4aDMzdjEwNWgxMzR2LTEwNWgzNFYwaC0zNCIgZmlsbD0iIzMzMyIvPjxnIGlkPSJ6Ij48dXNlIHhsaW5rOmhyZWY9IiNhQiIgdHJhbnNmb3JtPSJtYXRyaXgoMC4wNjE3MjgzOTUwNjE3MjgzOSwwLDAsMC4wNjE3MjgzOTUwNjE3MjgzOSwwLDApIi8+PHVzZSB4bGluazpocmVmPSIjWiIgdHJhbnNmb3JtPSJtYXRyaXgoMC4wNjE3MjgzOTUwNjE3MjgzOSwwLDAsMC4wNjE3MjgzOTUwNjE3MjgzOSwxNS45ODc2NTQzMjA5ODc2NTMsMCkiLz48dXNlIHhsaW5rOmhyZWY9IiNhYSIgdHJhbnNmb3JtPSJtYXRyaXgoMC4wNjE3MjgzOTUwNjE3MjgzOSwwLDAsMC4wNjE3MjgzOTUwNjE3MjgzOSwyOC4zMzMzMzMzMzMzMzMzMzIsMCkiLz48dXNlIHhsaW5rOmhyZWY9IiNXIiB0cmFuc2Zvcm09Im1hdHJpeCgwLjA2MTcyODM5NTA2MTcyODM5LDAsMCwwLjA2MTcyODM5NTA2MTcyODM5LDM1LjY3OTAxMjM0NTY3OTAxLDApIi8+PHVzZSB4bGluazpocmVmPSIjYUEiIHRyYW5zZm9ybT0ibWF0cml4KDAuMDYxNzI4Mzk1MDYxNzI4MzksMCwwLDAuMDYxNzI4Mzk1MDYxNzI4MzksNDguMDI0NjkxMzU4MDI0NjksMCkiLz48L2c+PHBhdGggaWQ9ImFDIiBkPSJNMzMgMHYtMzhoMzRWMEgzMyIgZmlsbD0iIzMzMyIvPjxnIGlkPSJBIj48dXNlIHhsaW5rOmhyZWY9IiNaIiB0cmFuc2Zvcm09Im1hdHJpeCgwLjA2MTcyODM5NTA2MTcyODM5LDAsMCwwLjA2MTcyODM5NTA2MTcyODM5LDAsMCkiLz48dXNlIHhsaW5rOmhyZWY9IiNZIiB0cmFuc2Zvcm09Im1hdHJpeCgwLjA2MTcyODM5NTA2MTcyODM5LDAsMCwwLjA2MTcyODM5NTA2MTcyODM5LDEyLjM0NTY3OTAxMjM0NTY3OSwwKSIvPjx1c2UgeGxpbms6aHJlZj0iI2FpIiB0cmFuc2Zvcm09Im1hdHJpeCgwLjA2MTcyODM5NTA2MTcyODM5LDAsMCwwLjA2MTcyODM5NTA2MTcyODM5LDE4LjUxODUxODUxODUxODUyLDApIi8+PHVzZSB4bGluazpocmVmPSIjYUMiIHRyYW5zZm9ybT0ibWF0cml4KDAuMDYxNzI4Mzk1MDYxNzI4MzksMCwwLDAuMDYxNzI4Mzk1MDYxNzI4MzksMjkuNjI5NjI5NjI5NjI5NjMsMCkiLz48L2c+PHBhdGggaWQ9ImFEIiBkPSJNMjA1IDBsLTI4LTcySDY0TDM2IDBIMWwxMDEtMjQ4aDM4TDIzOSAwaC0zNHptLTM4LTk5bC00Ny0xMjNjLTEyIDQ1LTMxIDgyLTQ2IDEyM2g5MyIgZmlsbD0iIzMzMyIvPjxnIGlkPSJCIj48dXNlIHhsaW5rOmhyZWY9IiNhZyIgdHJhbnNmb3JtPSJtYXRyaXgoMC4wNjE3MjgzOTUwNjE3MjgzOSwwLDAsMC4wNjE3MjgzOTUwNjE3MjgzOSwwLDApIi8+PHVzZSB4bGluazpocmVmPSIjYUQiIHRyYW5zZm9ybT0ibWF0cml4KDAuMDYxNzI4Mzk1MDYxNzI4MzksMCwwLDAuMDYxNzI4Mzk1MDYxNzI4MzksMTguNDU2NzkwMTIzNDU2Nzg4LDApIi8+PHVzZSB4bGluazpocmVmPSIjYW4iIHRyYW5zZm9ybT0ibWF0cml4KDAuMDYxNzI4Mzk1MDYxNzI4MzksMCwwLDAuMDYxNzI4Mzk1MDYxNzI4MzksMzMuMjcxNjA0OTM4MjcxNiwwKSIvPjx1c2UgeGxpbms6aHJlZj0iI2FwIiB0cmFuc2Zvcm09Im1hdHJpeCgwLjA2MTcyODM5NTA2MTcyODM5LDAsMCwwLjA2MTcyODM5NTA2MTcyODM5LDQ5LjI1OTI1OTI1OTI1OTI1LDApIi8+PHVzZSB4bGluazpocmVmPSIjVSIgdHJhbnNmb3JtPSJtYXRyaXgoMC4wNjE3MjgzOTUwNjE3MjgzOSwwLDAsMC4wNjE3MjgzOTUwNjE3MjgzOSw2Ni41NDMyMDk4NzY1NDMyLDApIi8+PC9nPjxwYXRoIGlkPSJhRSIgZD0iTTMwIDB2LTI0OGgzM3YyMjFoMTI1VjBIMzAiIGZpbGw9IiMzMzMiLz48ZyBpZD0iQyI+PHVzZSB4bGluazpocmVmPSIjYW4iIHRyYW5zZm9ybT0ibWF0cml4KDAuMDYxNzI4Mzk1MDYxNzI4MzksMCwwLDAuMDYxNzI4Mzk1MDYxNzI4MzksMCwwKSIvPjx1c2UgeGxpbms6aHJlZj0iI2FvIiB0cmFuc2Zvcm09Im1hdHJpeCgwLjA2MTcyODM5NTA2MTcyODM5LDAsMCwwLjA2MTcyODM5NTA2MTcyODM5LDE1Ljk4NzY1NDMyMDk4NzY1MywwKSIvPjx1c2UgeGxpbms6aHJlZj0iI2FwIiB0cmFuc2Zvcm09Im1hdHJpeCgwLjA2MTcyODM5NTA2MTcyODM5LDAsMCwwLjA2MTcyODM5NTA2MTcyODM5LDMwLjgwMjQ2OTEzNTgwMjQ3LDApIi8+PHVzZSB4bGluazpocmVmPSIjVSIgdHJhbnNmb3JtPSJtYXRyaXgoMC4wNjE3MjgzOTUwNjE3MjgzOSwwLDAsMC4wNjE3MjgzOTUwNjE3MjgzOSw0OC4wODY0MTk3NTMwODY0MiwwKSIvPjx1c2UgeGxpbms6aHJlZj0iI2FCIiB0cmFuc2Zvcm09Im1hdHJpeCgwLjA2MTcyODM5NTA2MTcyODM5LDAsMCwwLjA2MTcyODM5NTA2MTcyODM5LDYyLjkwMTIzNDU2NzkwMTIzLDApIi8+PHVzZSB4bGluazpocmVmPSIjYXYiIHRyYW5zZm9ybT0ibWF0cml4KDAuMDYxNzI4Mzk1MDYxNzI4MzksMCwwLDAuMDYxNzI4Mzk1MDYxNzI4MzksNzguODg4ODg4ODg4ODg4ODksMCkiLz48dXNlIHhsaW5rOmhyZWY9IiNhbyIgdHJhbnNmb3JtPSJtYXRyaXgoMC4wNjE3MjgzOTUwNjE3MjgzOSwwLDAsMC4wNjE3MjgzOTUwNjE3MjgzOSw4NS4wNjE3MjgzOTUwNjE3MiwwKSIvPjx1c2UgeGxpbms6aHJlZj0iI2FFIiB0cmFuc2Zvcm09Im1hdHJpeCgwLjA2MTcyODM5NTA2MTcyODM5LDAsMCwwLjA2MTcyODM5NTA2MTcyODM5LDk5Ljg3NjU0MzIwOTg3NjUzLDApIi8+PHVzZSB4bGluazpocmVmPSIjViIgdHJhbnNmb3JtPSJtYXRyaXgoMC4wNjE3MjgzOTUwNjE3MjgzOSwwLDAsMC4wNjE3MjgzOTUwNjE3MjgzOSwxMTIuMjIyMjIyMjIyMjIyMjEsMCkiLz48L2c+PGcgaWQ9IkQiPjx1c2UgeGxpbms6aHJlZj0iI2FnIiB0cmFuc2Zvcm09Im1hdHJpeCgwLjA2MTcyODM5NTA2MTcyODM5LDAsMCwwLjA2MTcyODM5NTA2MTcyODM5LDAsMCkiLz48dXNlIHhsaW5rOmhyZWY9IiNhdiIgdHJhbnNmb3JtPSJtYXRyaXgoMC4wNjE3MjgzOTUwNjE3MjgzOSwwLDAsMC4wNjE3MjgzOTUwNjE3MjgzOSwxOC40NTY3OTAxMjM0NTY3ODgsMCkiLz48dXNlIHhsaW5rOmhyZWY9IiNhdyIgdHJhbnNmb3JtPSJtYXRyaXgoMC4wNjE3MjgzOTUwNjE3MjgzOSwwLDAsMC4wNjE3MjgzOTUwNjE3MjgzOSwyNC42Mjk2Mjk2Mjk2Mjk2MjYsMCkiLz48dXNlIHhsaW5rOmhyZWY9IiNhQiIgdHJhbnNmb3JtPSJtYXRyaXgoMC4wNjE3MjgzOTUwNjE3MjgzOSwwLDAsMC4wNjE3MjgzOTUwNjE3MjgzOSwzOC4xNDgxNDgxNDgxNDgxNDUsMCkiLz48dXNlIHhsaW5rOmhyZWY9IiNhbiIgdHJhbnNmb3JtPSJtYXRyaXgoMC4wNjE3MjgzOTUwNjE3MjgzOSwwLDAsMC4wNjE3MjgzOTUwNjE3MjgzOSw1NC4xMzU4MDI0NjkxMzU4LDApIi8+PHVzZSB4bGluazpocmVmPSIjYW8iIHRyYW5zZm9ybT0ibWF0cml4KDAuMDYxNzI4Mzk1MDYxNzI4MzksMCwwLDAuMDYxNzI4Mzk1MDYxNzI4MzksNzAuMTIzNDU2NzkwMTIzNDYsMCkiLz48dXNlIHhsaW5rOmhyZWY9IiNhcCIgdHJhbnNmb3JtPSJtYXRyaXgoMC4wNjE3MjgzOTUwNjE3MjgzOSwwLDAsMC4wNjE3MjgzOTUwNjE3MjgzOSw4NC45MzgyNzE2MDQ5MzgyNywwKSIvPjx1c2UgeGxpbms6aHJlZj0iI1UiIHRyYW5zZm9ybT0ibWF0cml4KDAuMDYxNzI4Mzk1MDYxNzI4MzksMCwwLDAuMDYxNzI4Mzk1MDYxNzI4MzksMTAyLjIyMjIyMjIyMjIyMjIxLDApIi8+PC9nPjxwYXRoIGlkPSJhRiIgZD0iTTIxMi0xNzljLTEwLTI4LTM1LTQ1LTczLTQ1LTU5IDAtODcgNDAtODcgOTkgMCA2MCAyOSAxMDEgODkgMTAxIDQzIDAgNjItMjQgNzgtNTJsMjcgMTRDMjI4LTI0IDE5NSA0IDEzOSA0IDU5IDQgMjItNDYgMTgtMTI1Yy02LTEwNCA5OS0xNTMgMTg3LTExMSAxOSA5IDMxIDI2IDM5IDQ2IiBmaWxsPSIjMzMzIi8+PGcgaWQ9IkUiPjx1c2UgeGxpbms6aHJlZj0iI2FGIiB0cmFuc2Zvcm09Im1hdHJpeCgwLjA2MTcyODM5NTA2MTcyODM5LDAsMCwwLjA2MTcyODM5NTA2MTcyODM5LDAsMCkiLz48dXNlIHhsaW5rOmhyZWY9IiNhYiIgdHJhbnNmb3JtPSJtYXRyaXgoMC4wNjE3MjgzOTUwNjE3MjgzOSwwLDAsMC4wNjE3MjgzOTUwNjE3MjgzOSwxNS45ODc2NTQzMjA5ODc2NTMsMCkiLz48dXNlIHhsaW5rOmhyZWY9IiNhbSIgdHJhbnNmb3JtPSJtYXRyaXgoMC4wNjE3MjgzOTUwNjE3MjgzOSwwLDAsMC4wNjE3MjgzOTUwNjE3MjgzOSwyOC4zMzMzMzMzMzMzMzMzMzIsMCkiLz48dXNlIHhsaW5rOmhyZWY9IiNhaCIgdHJhbnNmb3JtPSJtYXRyaXgoMC4wNjE3MjgzOTUwNjE3MjgzOSwwLDAsMC4wNjE3MjgzOTUwNjE3MjgzOSw0Ni43OTAxMjM0NTY3OTAxMiwwKSIvPjx1c2UgeGxpbms6aHJlZj0iI1ciIHRyYW5zZm9ybT0ibWF0cml4KDAuMDYxNzI4Mzk1MDYxNzI4MzksMCwwLDAuMDYxNzI4Mzk1MDYxNzI4MzksNTkuMTM1ODAyNDY5MTM1OCwwKSIvPjx1c2UgeGxpbms6aHJlZj0iI2FhIiB0cmFuc2Zvcm09Im1hdHJpeCgwLjA2MTcyODM5NTA2MTcyODM5LDAsMCwwLjA2MTcyODM5NTA2MTcyODM5LDcxLjQ4MTQ4MTQ4MTQ4MTQ4LDApIi8+PHVzZSB4bGluazpocmVmPSIjWiIgdHJhbnNmb3JtPSJtYXRyaXgoMC4wNjE3MjgzOTUwNjE3MjgzOSwwLDAsMC4wNjE3MjgzOTUwNjE3MjgzOSw3OC44MjcxNjA0OTM4MjcxNywwKSIvPjwvZz48ZyBpZD0iRiI+PHVzZSB4bGluazpocmVmPSIjYUQiIHRyYW5zZm9ybT0ibWF0cml4KDAuMDYxNzI4Mzk1MDYxNzI4MzksMCwwLDAuMDYxNzI4Mzk1MDYxNzI4MzksMCwwKSIvPjx1c2UgeGxpbms6aHJlZj0iI2FxIiB0cmFuc2Zvcm09Im1hdHJpeCgwLjA2MTcyODM5NTA2MTcyODM5LDAsMCwwLjA2MTcyODM5NTA2MTcyODM5LDE0LjgxNDgxNDgxNDgxNDgxMywwKSIvPjx1c2UgeGxpbms6aHJlZj0iI1ciIHRyYW5zZm9ybT0ibWF0cml4KDAuMDYxNzI4Mzk1MDYxNzI4MzksMCwwLDAuMDYxNzI4Mzk1MDYxNzI4MzksMjcuMTYwNDkzODI3MTYwNDk0LDApIi8+PHVzZSB4bGluazpocmVmPSIjYWoiIHRyYW5zZm9ybT0ibWF0cml4KDAuMDYxNzI4Mzk1MDYxNzI4MzksMCwwLDAuMDYxNzI4Mzk1MDYxNzI4MzksMzkuNTA2MTcyODM5NTA2MTcsMCkiLz48dXNlIHhsaW5rOmhyZWY9IiNhYyIgdHJhbnNmb3JtPSJtYXRyaXgoMC4wNjE3MjgzOTUwNjE3MjgzOSwwLDAsMC4wNjE3MjgzOTUwNjE3MjgzOSw0NC4zODI3MTYwNDkzODI3MTUsMCkiLz48dXNlIHhsaW5rOmhyZWY9IiNYIiB0cmFuc2Zvcm09Im1hdHJpeCgwLjA2MTcyODM5NTA2MTcyODM5LDAsMCwwLjA2MTcyODM5NTA2MTcyODM5LDQ5LjI1OTI1OTI1OTI1OTI2LDApIi8+PHVzZSB4bGluazpocmVmPSIjYWMiIHRyYW5zZm9ybT0ibWF0cml4KDAuMDYxNzI4Mzk1MDYxNzI4MzksMCwwLDAuMDYxNzI4Mzk1MDYxNzI4MzksNjAuMzcwMzcwMzcwMzcwMzcsMCkiLz48dXNlIHhsaW5rOmhyZWY9IiNYIiB0cmFuc2Zvcm09Im1hdHJpeCgwLjA2MTcyODM5NTA2MTcyODM5LDAsMCwwLjA2MTcyODM5NTA2MTcyODM5LDY1LjI0NjkxMzU4MDI0NjkxLDApIi8+PC9nPjxnIGlkPSJHIj48dXNlIHhsaW5rOmhyZWY9IiNZIiB0cmFuc2Zvcm09Im1hdHJpeCgwLjA2MTcyODM5NTA2MTcyODM5LDAsMCwwLjA2MTcyODM5NTA2MTcyODM5LDAsMCkiLz48dXNlIHhsaW5rOmhyZWY9IiNhYiIgdHJhbnNmb3JtPSJtYXRyaXgoMC4wNjE3MjgzOTUwNjE3MjgzOSwwLDAsMC4wNjE3MjgzOTUwNjE3MjgzOSw2LjE3MjgzOTUwNjE3MjgzOSwwKSIvPjwvZz48ZyBpZD0iSCI+PHVzZSB4bGluazpocmVmPSIjVSIgdHJhbnNmb3JtPSJtYXRyaXgoMC4wNjE3MjgzOTUwNjE3MjgzOSwwLDAsMC4wNjE3MjgzOTUwNjE3MjgzOSwwLDApIi8+PHVzZSB4bGluazpocmVmPSIjViIgdHJhbnNmb3JtPSJtYXRyaXgoMC4wNjE3MjgzOTUwNjE3MjgzOSwwLDAsMC4wNjE3MjgzOTUwNjE3MjgzOSwxNC44MTQ4MTQ4MTQ4MTQ4MTMsMCkiLz48dXNlIHhsaW5rOmhyZWY9IiNVIiB0cmFuc2Zvcm09Im1hdHJpeCgwLjA2MTcyODM5NTA2MTcyODM5LDAsMCwwLjA2MTcyODM5NTA2MTcyODM5LDMwLjgwMjQ2OTEzNTgwMjQ3LDApIi8+PHVzZSB4bGluazpocmVmPSIjVSIgdHJhbnNmb3JtPSJtYXRyaXgoMC4wNjE3MjgzOTUwNjE3MjgzOSwwLDAsMC4wNjE3MjgzOTUwNjE3MjgzOSw0NS42MTcyODM5NTA2MTcyOCwwKSIvPjwvZz48ZyBpZD0iSSI+PHVzZSB4bGluazpocmVmPSIjYWkiIHRyYW5zZm9ybT0ibWF0cml4KDAuMDYxNzI4Mzk1MDYxNzI4MzksMCwwLDAuMDYxNzI4Mzk1MDYxNzI4MzksMCwwKSIvPjx1c2UgeGxpbms6aHJlZj0iI2FiIiB0cmFuc2Zvcm09Im1hdHJpeCgwLjA2MTcyODM5NTA2MTcyODM5LDAsMCwwLjA2MTcyODM5NTA2MTcyODM5LDExLjExMTExMTExMTExMTExLDApIi8+PHVzZSB4bGluazpocmVmPSIjYWoiIHRyYW5zZm9ybT0ibWF0cml4KDAuMDYxNzI4Mzk1MDYxNzI4MzksMCwwLDAuMDYxNzI4Mzk1MDYxNzI4MzksMjMuNDU2NzkwMTIzNDU2NzksMCkiLz48dXNlIHhsaW5rOmhyZWY9IiNhYiIgdHJhbnNmb3JtPSJtYXRyaXgoMC4wNjE3MjgzOTUwNjE3MjgzOSwwLDAsMC4wNjE3MjgzOTUwNjE3MjgzOSwyOC4zMzMzMzMzMzMzMzMzMzYsMCkiLz48dXNlIHhsaW5rOmhyZWY9IiNhYSIgdHJhbnNmb3JtPSJtYXRyaXgoMC4wNjE3MjgzOTUwNjE3MjgzOSwwLDAsMC4wNjE3MjgzOTUwNjE3MjgzOSw0MC42NzkwMTIzNDU2NzkwMSwwKSIvPjx1c2UgeGxpbms6aHJlZj0iI1giIHRyYW5zZm9ybT0ibWF0cml4KDAuMDYxNzI4Mzk1MDYxNzI4MzksMCwwLDAuMDYxNzI4Mzk1MDYxNzI4MzksNDguMDI0NjkxMzU4MDI0NjksMCkiLz48L2c+PGcgaWQ9IkoiPjx1c2UgeGxpbms6aHJlZj0iI1kiIHRyYW5zZm9ybT0ibWF0cml4KDAuMDYxNzI4Mzk1MDYxNzI4MzksMCwwLDAuMDYxNzI4Mzk1MDYxNzI4MzksMCwwKSIvPjx1c2UgeGxpbms6aHJlZj0iI2FhIiB0cmFuc2Zvcm09Im1hdHJpeCgwLjA2MTcyODM5NTA2MTcyODM5LDAsMCwwLjA2MTcyODM5NTA2MTcyODM5LDYuMTcyODM5NTA2MTcyODM5LDApIi8+PHVzZSB4bGluazpocmVmPSIjVyIgdHJhbnNmb3JtPSJtYXRyaXgoMC4wNjE3MjgzOTUwNjE3MjgzOSwwLDAsMC4wNjE3MjgzOTUwNjE3MjgzOSwxMy41MTg1MTg1MTg1MTg1MTksMCkiLz48dXNlIHhsaW5rOmhyZWY9IiNhcSIgdHJhbnNmb3JtPSJtYXRyaXgoMC4wNjE3MjgzOTUwNjE3MjgzOSwwLDAsMC4wNjE3MjgzOTUwNjE3MjgzOSwyNS44NjQxOTc1MzA4NjQxOTYsMCkiLz48dXNlIHhsaW5rOmhyZWY9IiNYIiB0cmFuc2Zvcm09Im1hdHJpeCgwLjA2MTcyODM5NTA2MTcyODM5LDAsMCwwLjA2MTcyODM5NTA2MTcyODM5LDM4LjIwOTg3NjU0MzIwOTg3LDApIi8+PHVzZSB4bGluazpocmVmPSIjYXUiIHRyYW5zZm9ybT0ibWF0cml4KDAuMDYxNzI4Mzk1MDYxNzI4MzksMCwwLDAuMDYxNzI4Mzk1MDYxNzI4MzksNDkuMzIwOTg3NjU0MzIwOTksMCkiLz48dXNlIHhsaW5rOmhyZWY9IiNhYiIgdHJhbnNmb3JtPSJtYXRyaXgoMC4wNjE3MjgzOTUwNjE3MjgzOSwwLDAsMC4wNjE3MjgzOTUwNjE3MjgzOSw1NS40OTM4MjcxNjA0OTM4MywwKSIvPjx1c2UgeGxpbms6aHJlZj0iI2FhIiB0cmFuc2Zvcm09Im1hdHJpeCgwLjA2MTcyODM5NTA2MTcyODM5LDAsMCwwLjA2MTcyODM5NTA2MTcyODM5LDY3LjgzOTUwNjE3MjgzOTUsMCkiLz48dXNlIHhsaW5rOmhyZWY9IiNhbSIgdHJhbnNmb3JtPSJtYXRyaXgoMC4wNjE3MjgzOTUwNjE3MjgzOSwwLDAsMC4wNjE3MjgzOTUwNjE3MjgzOSw3NS4xODUxODUxODUxODUxOSwwKSIvPjwvZz48cGF0aCBpZD0iYUciIGQ9Ik0xNDMgNEM2MSA0IDIyLTQ0IDE4LTEyNWMtNS0xMDcgMTAwLTE1NCAxOTMtMTExIDE3IDggMjkgMjUgMzcgNDNsLTMyIDljLTEzLTI1LTM3LTQwLTc2LTQwLTYxIDAtODggMzktODggOTkgMCA2MSAyOSAxMDAgOTEgMTAxIDM1IDAgNjItMTEgNzktMjd2LTQ1aC03NHYtMjhoMTA1djg2QzIyOC0xMyAxOTIgNCAxNDMgNCIgZmlsbD0iIzMzMyIvPjxnIGlkPSJLIj48dXNlIHhsaW5rOmhyZWY9IiNhRyIgdHJhbnNmb3JtPSJtYXRyaXgoMC4wNjE3MjgzOTUwNjE3MjgzOSwwLDAsMC4wNjE3MjgzOTUwNjE3MjgzOSwwLDApIi8+PHVzZSB4bGluazpocmVmPSIjYUQiIHRyYW5zZm9ybT0ibWF0cml4KDAuMDYxNzI4Mzk1MDYxNzI4MzksMCwwLDAuMDYxNzI4Mzk1MDYxNzI4MzksMTcuMjgzOTUwNjE3MjgzOTUsMCkiLz48dXNlIHhsaW5rOmhyZWY9IiNhdiIgdHJhbnNmb3JtPSJtYXRyaXgoMC4wNjE3MjgzOTUwNjE3MjgzOSwwLDAsMC4wNjE3MjgzOTUwNjE3MjgzOSwzMi4wOTg3NjU0MzIwOTg3NiwwKSIvPjx1c2UgeGxpbms6aHJlZj0iI2FEIiB0cmFuc2Zvcm09Im1hdHJpeCgwLjA2MTcyODM5NTA2MTcyODM5LDAsMCwwLjA2MTcyODM5NTA2MTcyODM5LDM4LjI3MTYwNDkzODI3MTYsMCkiLz48L2c+PGcgaWQ9IkwiPjx1c2UgeGxpbms6aHJlZj0iI1ciIHRyYW5zZm9ybT0ibWF0cml4KDAuMDYxNzI4Mzk1MDYxNzI4MzksMCwwLDAuMDYxNzI4Mzk1MDYxNzI4MzksMCwwKSIvPjx1c2UgeGxpbms6aHJlZj0iI1giIHRyYW5zZm9ybT0ibWF0cml4KDAuMDYxNzI4Mzk1MDYxNzI4MzksMCwwLDAuMDYxNzI4Mzk1MDYxNzI4MzksMTIuMzQ1Njc5MDEyMzQ1Njc5LDApIi8+PHVzZSB4bGluazpocmVmPSIjWSIgdHJhbnNmb3JtPSJtYXRyaXgoMC4wNjE3MjgzOTUwNjE3MjgzOSwwLDAsMC4wNjE3MjgzOTUwNjE3MjgzOSwyMy40NTY3OTAxMjM0NTY3OSwwKSIvPjx1c2UgeGxpbms6aHJlZj0iI1oiIHRyYW5zZm9ybT0ibWF0cml4KDAuMDYxNzI4Mzk1MDYxNzI4MzksMCwwLDAuMDYxNzI4Mzk1MDYxNzI4MzksMjkuNjI5NjI5NjI5NjI5NjMsMCkiLz48dXNlIHhsaW5rOmhyZWY9IiNhYSIgdHJhbnNmb3JtPSJtYXRyaXgoMC4wNjE3MjgzOTUwNjE3MjgzOSwwLDAsMC4wNjE3MjgzOTUwNjE3MjgzOSw0MS45NzUzMDg2NDE5NzUzMSwwKSIvPjx1c2UgeGxpbms6aHJlZj0iI2FiIiB0cmFuc2Zvcm09Im1hdHJpeCgwLjA2MTcyODM5NTA2MTcyODM5LDAsMCwwLjA2MTcyODM5NTA2MTcyODM5LDQ5LjMyMDk4NzY1NDMyMDk5LDApIi8+PHVzZSB4bGluazpocmVmPSIjYWMiIHRyYW5zZm9ybT0ibWF0cml4KDAuMDYxNzI4Mzk1MDYxNzI4MzksMCwwLDAuMDYxNzI4Mzk1MDYxNzI4MzksNjEuNjY2NjY2NjY2NjY2NjY0LDApIi8+PHVzZSB4bGluazpocmVmPSIjYWQiIHRyYW5zZm9ybT0ibWF0cml4KDAuMDYxNzI4Mzk1MDYxNzI4MzksMCwwLDAuMDYxNzI4Mzk1MDYxNzI4MzksNjYuNTQzMjA5ODc2NTQzMiwwKSIvPjx1c2UgeGxpbms6aHJlZj0iI1giIHRyYW5zZm9ybT0ibWF0cml4KDAuMDYxNzI4Mzk1MDYxNzI4MzksMCwwLDAuMDYxNzI4Mzk1MDYxNzI4MzksNzguODg4ODg4ODg4ODg4ODksMCkiLz48L2c+PGcgaWQ9Ik0iPjx1c2UgeGxpbms6aHJlZj0iI2FHIiB0cmFuc2Zvcm09Im1hdHJpeCgwLjA2MTcyODM5NTA2MTcyODM5LDAsMCwwLjA2MTcyODM5NTA2MTcyODM5LDAsMCkiLz48dXNlIHhsaW5rOmhyZWY9IiNhRCIgdHJhbnNmb3JtPSJtYXRyaXgoMC4wNjE3MjgzOTUwNjE3MjgzOSwwLDAsMC4wNjE3MjgzOTUwNjE3MjgzOSwxNy4yODM5NTA2MTcyODM5NSwwKSIvPjx1c2UgeGxpbms6aHJlZj0iI2F2IiB0cmFuc2Zvcm09Im1hdHJpeCgwLjA2MTcyODM5NTA2MTcyODM5LDAsMCwwLjA2MTcyODM5NTA2MTcyODM5LDMyLjA5ODc2NTQzMjA5ODc2LDApIi8+PHVzZSB4bGluazpocmVmPSIjYUQiIHRyYW5zZm9ybT0ibWF0cml4KDAuMDYxNzI4Mzk1MDYxNzI4MzksMCwwLDAuMDYxNzI4Mzk1MDYxNzI4MzksMzguMjcxNjA0OTM4MjcxNiwwKSIvPjwvZz48ZyBpZD0iTiI+PHVzZSB4bGluazpocmVmPSIjYW4iIHRyYW5zZm9ybT0ibWF0cml4KDAuMDYxNzI4Mzk1MDYxNzI4MzksMCwwLDAuMDYxNzI4Mzk1MDYxNzI4MzksMCwwKSIvPjx1c2UgeGxpbms6aHJlZj0iI2FvIiB0cmFuc2Zvcm09Im1hdHJpeCgwLjA2MTcyODM5NTA2MTcyODM5LDAsMCwwLjA2MTcyODM5NTA2MTcyODM5LDE1Ljk4NzY1NDMyMDk4NzY1MywwKSIvPjx1c2UgeGxpbms6aHJlZj0iI2FwIiB0cmFuc2Zvcm09Im1hdHJpeCgwLjA2MTcyODM5NTA2MTcyODM5LDAsMCwwLjA2MTcyODM5NTA2MTcyODM5LDMwLjgwMjQ2OTEzNTgwMjQ3LDApIi8+PHVzZSB4bGluazpocmVmPSIjWCIgdHJhbnNmb3JtPSJtYXRyaXgoMC4wNjE3MjgzOTUwNjE3MjgzOSwwLDAsMC4wNjE3MjgzOTUwNjE3MjgzOSw0OC4wODY0MTk3NTMwODY0MiwwKSIvPjwvZz48ZyBpZD0iTyI+PHVzZSB4bGluazpocmVmPSIjVSIgdHJhbnNmb3JtPSJtYXRyaXgoMC4wNjE3MjgzOTUwNjE3MjgzOSwwLDAsMC4wNjE3MjgzOTUwNjE3MjgzOSwwLDApIi8+PHVzZSB4bGluazpocmVmPSIjViIgdHJhbnNmb3JtPSJtYXRyaXgoMC4wNjE3MjgzOTUwNjE3MjgzOSwwLDAsMC4wNjE3MjgzOTUwNjE3MjgzOSwxNC44MTQ4MTQ4MTQ4MTQ4MTMsMCkiLz48dXNlIHhsaW5rOmhyZWY9IiNVIiB0cmFuc2Zvcm09Im1hdHJpeCgwLjA2MTcyODM5NTA2MTcyODM5LDAsMCwwLjA2MTcyODM5NTA2MTcyODM5LDMwLjgwMjQ2OTEzNTgwMjQ3LDApIi8+PHVzZSB4bGluazpocmVmPSIjVSIgdHJhbnNmb3JtPSJtYXRyaXgoMC4wNjE3MjgzOTUwNjE3MjgzOSwwLDAsMC4wNjE3MjgzOTUwNjE3MjgzOSw0NS42MTcyODM5NTA2MTcyOCwwKSIvPjwvZz48ZyBpZD0iUCI+PHVzZSB4bGluazpocmVmPSIjYXUiIHRyYW5zZm9ybT0ibWF0cml4KDAuMDYxNzI4Mzk1MDYxNzI4MzksMCwwLDAuMDYxNzI4Mzk1MDYxNzI4MzksMCwwKSIvPjx1c2UgeGxpbms6aHJlZj0iI2FjIiB0cmFuc2Zvcm09Im1hdHJpeCgwLjA2MTcyODM5NTA2MTcyODM5LDAsMCwwLjA2MTcyODM5NTA2MTcyODM5LDYuMTcyODM5NTA2MTcyODM5LDApIi8+PHVzZSB4bGluazpocmVmPSIjYWoiIHRyYW5zZm9ybT0ibWF0cml4KDAuMDYxNzI4Mzk1MDYxNzI4MzksMCwwLDAuMDYxNzI4Mzk1MDYxNzI4MzksMTEuMDQ5MzgyNzE2MDQ5MzgzLDApIi8+PHVzZSB4bGluazpocmVmPSIjWSIgdHJhbnNmb3JtPSJtYXRyaXgoMC4wNjE3MjgzOTUwNjE3MjgzOSwwLDAsMC4wNjE3MjgzOTUwNjE3MjgzOSwxNS45MjU5MjU5MjU5MjU5MjYsMCkiLz48dXNlIHhsaW5rOmhyZWY9IiNaIiB0cmFuc2Zvcm09Im1hdHJpeCgwLjA2MTcyODM5NTA2MTcyODM5LDAsMCwwLjA2MTcyODM5NTA2MTcyODM5LDIyLjA5ODc2NTQzMjA5ODc2NiwwKSIvPjx1c2UgeGxpbms6aHJlZj0iI2FhIiB0cmFuc2Zvcm09Im1hdHJpeCgwLjA2MTcyODM5NTA2MTcyODM5LDAsMCwwLjA2MTcyODM5NTA2MTcyODM5LDM0LjQ0NDQ0NDQ0NDQ0NDQ0LDApIi8+PHVzZSB4bGluazpocmVmPSIjWCIgdHJhbnNmb3JtPSJtYXRyaXgoMC4wNjE3MjgzOTUwNjE3MjgzOSwwLDAsMC4wNjE3MjgzOTUwNjE3MjgzOSw0MS43OTAxMjM0NTY3OTAxMiwwKSIvPjwvZz48ZyBpZD0iUSI+PHVzZSB4bGluazpocmVmPSIjYWEiIHRyYW5zZm9ybT0ibWF0cml4KDAuMDYxNzI4Mzk1MDYxNzI4MzksMCwwLDAuMDYxNzI4Mzk1MDYxNzI4MzksMCwwKSIvPjx1c2UgeGxpbms6aHJlZj0iI1oiIHRyYW5zZm9ybT0ibWF0cml4KDAuMDYxNzI4Mzk1MDYxNzI4MzksMCwwLDAuMDYxNzI4Mzk1MDYxNzI4MzksNy4zNDU2NzkwMTIzNDU2NzksMCkiLz48dXNlIHhsaW5rOmhyZWY9IiNYIiB0cmFuc2Zvcm09Im1hdHJpeCgwLjA2MTcyODM5NTA2MTcyODM5LDAsMCwwLjA2MTcyODM5NTA2MTcyODM5LDE5LjY5MTM1ODAyNDY5MTM1OCwwKSIvPjx1c2UgeGxpbms6aHJlZj0iI2FoIiB0cmFuc2Zvcm09Im1hdHJpeCgwLjA2MTcyODM5NTA2MTcyODM5LDAsMCwwLjA2MTcyODM5NTA2MTcyODM5LDMwLjgwMjQ2OTEzNTgwMjQ3LDApIi8+PHVzZSB4bGluazpocmVmPSIjYWIiIHRyYW5zZm9ybT0ibWF0cml4KDAuMDYxNzI4Mzk1MDYxNzI4MzksMCwwLDAuMDYxNzI4Mzk1MDYxNzI4MzksNDMuMTQ4MTQ4MTQ4MTQ4MTQ1LDApIi8+PHVzZSB4bGluazpocmVmPSIjYXEiIHRyYW5zZm9ybT0ibWF0cml4KDAuMDYxNzI4Mzk1MDYxNzI4MzksMCwwLDAuMDYxNzI4Mzk1MDYxNzI4MzksNTUuNDkzODI3MTYwNDkzODIsMCkiLz48dXNlIHhsaW5rOmhyZWY9IiNYIiB0cmFuc2Zvcm09Im1hdHJpeCgwLjA2MTcyODM5NTA2MTcyODM5LDAsMCwwLjA2MTcyODM5NTA2MTcyODM5LDY3LjgzOTUwNjE3MjgzOTUsMCkiLz48dXNlIHhsaW5rOmhyZWY9IiNaIiB0cmFuc2Zvcm09Im1hdHJpeCgwLjA2MTcyODM5NTA2MTcyODM5LDAsMCwwLjA2MTcyODM5NTA2MTcyODM5LDc4Ljk1MDYxNzI4Mzk1MDYyLDApIi8+PC9nPjxnIGlkPSJSIj48dXNlIHhsaW5rOmhyZWY9IiNYIiB0cmFuc2Zvcm09Im1hdHJpeCgwLjA2MTcyODM5NTA2MTcyODM5LDAsMCwwLjA2MTcyODM5NTA2MTcyODM5LDAsMCkiLz48dXNlIHhsaW5rOmhyZWY9IiNhaCIgdHJhbnNmb3JtPSJtYXRyaXgoMC4wNjE3MjgzOTUwNjE3MjgzOSwwLDAsMC4wNjE3MjgzOTUwNjE3MjgzOSwxMS4xMTExMTExMTExMTExMSwwKSIvPjx1c2UgeGxpbms6aHJlZj0iI1oiIHRyYW5zZm9ybT0ibWF0cml4KDAuMDYxNzI4Mzk1MDYxNzI4MzksMCwwLDAuMDYxNzI4Mzk1MDYxNzI4MzksMjMuNDU2NzkwMTIzNDU2NzksMCkiLz48dXNlIHhsaW5rOmhyZWY9IiNhaSIgdHJhbnNmb3JtPSJtYXRyaXgoMC4wNjE3MjgzOTUwNjE3MjgzOSwwLDAsMC4wNjE3MjgzOTUwNjE3MjgzOSwzNS44MDI0NjkxMzU4MDI0NywwKSIvPjx1c2UgeGxpbms6aHJlZj0iI1kiIHRyYW5zZm9ybT0ibWF0cml4KDAuMDYxNzI4Mzk1MDYxNzI4MzksMCwwLDAuMDYxNzI4Mzk1MDYxNzI4MzksNDYuOTEzNTgwMjQ2OTEzNTgsMCkiLz48dXNlIHhsaW5rOmhyZWY9IiNhYSIgdHJhbnNmb3JtPSJtYXRyaXgoMC4wNjE3MjgzOTUwNjE3MjgzOSwwLDAsMC4wNjE3MjgzOTUwNjE3MjgzOSw1My4wODY0MTk3NTMwODY0MjUsMCkiLz48dXNlIHhsaW5rOmhyZWY9IiNXIiB0cmFuc2Zvcm09Im1hdHJpeCgwLjA2MTcyODM5NTA2MTcyODM5LDAsMCwwLjA2MTcyODM5NTA2MTcyODM5LDYwLjQzMjA5ODc2NTQzMjEsMCkiLz48L2c+PGcgaWQ9IlMiPjx1c2UgeGxpbms6aHJlZj0iI1kiIHRyYW5zZm9ybT0ibWF0cml4KDAuMDYxNzI4Mzk1MDYxNzI4MzksMCwwLDAuMDYxNzI4Mzk1MDYxNzI4MzksMCwwKSIvPjx1c2UgeGxpbms6aHJlZj0iI2FiIiB0cmFuc2Zvcm09Im1hdHJpeCgwLjA2MTcyODM5NTA2MTcyODM5LDAsMCwwLjA2MTcyODM5NTA2MTcyODM5LDYuMTcyODM5NTA2MTcyODM5LDApIi8+PC9nPjxnIGlkPSJUIj48dXNlIHhsaW5rOmhyZWY9IiNhaSIgdHJhbnNmb3JtPSJtYXRyaXgoMC4wNjE3MjgzOTUwNjE3MjgzOSwwLDAsMC4wNjE3MjgzOTUwNjE3MjgzOSwwLDApIi8+PHVzZSB4bGluazpocmVmPSIjYWIiIHRyYW5zZm9ybT0ibWF0cml4KDAuMDYxNzI4Mzk1MDYxNzI4MzksMCwwLDAuMDYxNzI4Mzk1MDYxNzI4MzksMTEuMTExMTExMTExMTExMTEsMCkiLz48dXNlIHhsaW5rOmhyZWY9IiNhaiIgdHJhbnNmb3JtPSJtYXRyaXgoMC4wNjE3MjgzOTUwNjE3MjgzOSwwLDAsMC4wNjE3MjgzOTUwNjE3MjgzOSwyMy40NTY3OTAxMjM0NTY3OSwwKSIvPjx1c2UgeGxpbms6aHJlZj0iI2FiIiB0cmFuc2Zvcm09Im1hdHJpeCgwLjA2MTcyODM5NTA2MTcyODM5LDAsMCwwLjA2MTcyODM5NTA2MTcyODM5LDI4LjMzMzMzMzMzMzMzMzMzNiwwKSIvPjx1c2UgeGxpbms6aHJlZj0iI2FhIiB0cmFuc2Zvcm09Im1hdHJpeCgwLjA2MTcyODM5NTA2MTcyODM5LDAsMCwwLjA2MTcyODM5NTA2MTcyODM5LDQwLjY3OTAxMjM0NTY3OTAxLDApIi8+PC9nPjwvZGVmcz48L2c+PC9zdmc+;" parent="1" vertex="1">
          <mxGeometry x="5" y="10" width="839.07" height="760" as="geometry" />
        </mxCell>
        <mxCell id="aYM6xtdw5qeDzCKNdwKn-15" value="" style="edgeStyle=orthogonalEdgeStyle;rounded=0;orthogonalLoop=1;jettySize=auto;html=1;" parent="1" source="aYM6xtdw5qeDzCKNdwKn-9" target="aYM6xtdw5qeDzCKNdwKn-12" edge="1">
          <mxGeometry relative="1" as="geometry" />
        </mxCell>
        <mxCell id="aYM6xtdw5qeDzCKNdwKn-9" value="&lt;div&gt;SDSS&lt;/div&gt;&lt;div&gt;asteroids&lt;br&gt;&lt;/div&gt;" style="shape=cylinder3;whiteSpace=wrap;html=1;boundedLbl=1;backgroundOutline=1;size=15;" parent="1" vertex="1">
          <mxGeometry x="142.5" y="30" width="90" height="70" as="geometry" />
        </mxCell>
        <mxCell id="aYM6xtdw5qeDzCKNdwKn-36" value="" style="edgeStyle=orthogonalEdgeStyle;rounded=0;orthogonalLoop=1;jettySize=auto;html=1;" parent="1" source="aYM6xtdw5qeDzCKNdwKn-10" target="aYM6xtdw5qeDzCKNdwKn-35" edge="1">
          <mxGeometry relative="1" as="geometry" />
        </mxCell>
        <mxCell id="aYM6xtdw5qeDzCKNdwKn-10" value="&lt;div&gt;SkyMapper&lt;/div&gt;&lt;div&gt;asteroids&lt;br&gt;&lt;/div&gt;" style="shape=cylinder3;whiteSpace=wrap;html=1;boundedLbl=1;backgroundOutline=1;size=15;" parent="1" vertex="1">
          <mxGeometry x="397.5" y="30" width="90" height="70" as="geometry" />
        </mxCell>
        <mxCell id="aYM6xtdw5qeDzCKNdwKn-44" value="" style="edgeStyle=orthogonalEdgeStyle;rounded=0;orthogonalLoop=1;jettySize=auto;html=1;" parent="1" source="aYM6xtdw5qeDzCKNdwKn-11" target="aYM6xtdw5qeDzCKNdwKn-41" edge="1">
          <mxGeometry relative="1" as="geometry" />
        </mxCell>
        <mxCell id="aYM6xtdw5qeDzCKNdwKn-11" value="&lt;div&gt;GAIA&lt;/div&gt;&lt;div&gt;asteroids&lt;br&gt;&lt;/div&gt;" style="shape=cylinder3;whiteSpace=wrap;html=1;boundedLbl=1;backgroundOutline=1;size=15;" parent="1" vertex="1">
          <mxGeometry x="620" y="30" width="100" height="70" as="geometry" />
        </mxCell>
        <mxCell id="aYM6xtdw5qeDzCKNdwKn-14" style="edgeStyle=orthogonalEdgeStyle;rounded=0;orthogonalLoop=1;jettySize=auto;html=1;exitX=0;exitY=0.5;exitDx=0;exitDy=0;entryX=0.5;entryY=0;entryDx=0;entryDy=0;" parent="1" source="aYM6xtdw5qeDzCKNdwKn-12" target="aYM6xtdw5qeDzCKNdwKn-13" edge="1">
          <mxGeometry relative="1" as="geometry" />
        </mxCell>
        <mxCell id="aYM6xtdw5qeDzCKNdwKn-18" style="edgeStyle=orthogonalEdgeStyle;rounded=0;orthogonalLoop=1;jettySize=auto;html=1;entryX=0.5;entryY=0;entryDx=0;entryDy=0;" parent="1" source="aYM6xtdw5qeDzCKNdwKn-12" target="aYM6xtdw5qeDzCKNdwKn-17" edge="1">
          <mxGeometry relative="1" as="geometry" />
        </mxCell>
        <mxCell id="aYM6xtdw5qeDzCKNdwKn-12" value="SDSS NEOs" style="shape=hexagon;perimeter=hexagonPerimeter2;whiteSpace=wrap;html=1;fixedSize=1;" parent="1" vertex="1">
          <mxGeometry x="135" y="140" width="105" height="70" as="geometry" />
        </mxCell>
        <mxCell id="aYM6xtdw5qeDzCKNdwKn-19" style="edgeStyle=orthogonalEdgeStyle;rounded=0;orthogonalLoop=1;jettySize=auto;html=1;" parent="1" source="aYM6xtdw5qeDzCKNdwKn-13" target="aYM6xtdw5qeDzCKNdwKn-16" edge="1">
          <mxGeometry relative="1" as="geometry" />
        </mxCell>
        <mxCell id="aYM6xtdw5qeDzCKNdwKn-13" value="SDSS catalog photometry" style="rounded=1;whiteSpace=wrap;html=1;" parent="1" vertex="1">
          <mxGeometry x="20" y="220" width="100" height="60" as="geometry" />
        </mxCell>
        <mxCell id="aYM6xtdw5qeDzCKNdwKn-25" style="edgeStyle=orthogonalEdgeStyle;rounded=0;orthogonalLoop=1;jettySize=auto;html=1;entryX=0.5;entryY=0;entryDx=0;entryDy=0;exitX=0.5;exitY=1;exitDx=0;exitDy=0;" parent="1" source="aYM6xtdw5qeDzCKNdwKn-16" target="aYM6xtdw5qeDzCKNdwKn-21" edge="1">
          <mxGeometry relative="1" as="geometry" />
        </mxCell>
        <mxCell id="aYM6xtdw5qeDzCKNdwKn-16" value="SDSS catalog individual colors" style="rounded=1;whiteSpace=wrap;html=1;" parent="1" vertex="1">
          <mxGeometry x="145" y="220" width="100" height="60" as="geometry" />
        </mxCell>
        <mxCell id="aYM6xtdw5qeDzCKNdwKn-26" value="" style="edgeStyle=orthogonalEdgeStyle;rounded=0;orthogonalLoop=1;jettySize=auto;html=1;" parent="1" source="aYM6xtdw5qeDzCKNdwKn-17" target="aYM6xtdw5qeDzCKNdwKn-20" edge="1">
          <mxGeometry relative="1" as="geometry" />
        </mxCell>
        <mxCell id="aYM6xtdw5qeDzCKNdwKn-17" value="SDSS image photometry" style="rounded=1;whiteSpace=wrap;html=1;" parent="1" vertex="1">
          <mxGeometry x="260" y="220" width="100" height="60" as="geometry" />
        </mxCell>
        <mxCell id="aYM6xtdw5qeDzCKNdwKn-27" value="" style="edgeStyle=orthogonalEdgeStyle;rounded=0;orthogonalLoop=1;jettySize=auto;html=1;entryX=0.5;entryY=0;entryDx=0;entryDy=0;" parent="1" source="aYM6xtdw5qeDzCKNdwKn-20" target="aYM6xtdw5qeDzCKNdwKn-29" edge="1">
          <mxGeometry relative="1" as="geometry">
            <mxPoint x="47.5" y="500" as="targetPoint" />
          </mxGeometry>
        </mxCell>
        <mxCell id="aYM6xtdw5qeDzCKNdwKn-20" value="SDSS image colors" style="rounded=1;whiteSpace=wrap;html=1;" parent="1" vertex="1">
          <mxGeometry x="260" y="320" width="100" height="60" as="geometry" />
        </mxCell>
        <mxCell id="aYM6xtdw5qeDzCKNdwKn-31" value="" style="edgeStyle=orthogonalEdgeStyle;rounded=0;orthogonalLoop=1;jettySize=auto;html=1;" parent="1" source="aYM6xtdw5qeDzCKNdwKn-21" target="aYM6xtdw5qeDzCKNdwKn-29" edge="1">
          <mxGeometry relative="1" as="geometry" />
        </mxCell>
        <mxCell id="aYM6xtdw5qeDzCKNdwKn-21" value="SDSS catalog average colors" style="rounded=1;whiteSpace=wrap;html=1;" parent="1" vertex="1">
          <mxGeometry x="20" y="320" width="100" height="60" as="geometry" />
        </mxCell>
        <mxCell id="aYM6xtdw5qeDzCKNdwKn-34" value="" style="edgeStyle=orthogonalEdgeStyle;rounded=0;orthogonalLoop=1;jettySize=auto;html=1;" parent="1" source="aYM6xtdw5qeDzCKNdwKn-22" target="aYM6xtdw5qeDzCKNdwKn-32" edge="1">
          <mxGeometry relative="1" as="geometry" />
        </mxCell>
        <mxCell id="aYM6xtdw5qeDzCKNdwKn-22" value="&lt;div&gt;SDSS final &lt;br&gt;&lt;/div&gt;&lt;div&gt;NEOs colors&lt;/div&gt;" style="rounded=1;whiteSpace=wrap;html=1;" parent="1" vertex="1">
          <mxGeometry x="140" y="420" width="100" height="60" as="geometry" />
        </mxCell>
        <mxCell id="aYM6xtdw5qeDzCKNdwKn-33" value="" style="edgeStyle=orthogonalEdgeStyle;rounded=0;orthogonalLoop=1;jettySize=auto;html=1;" parent="1" source="aYM6xtdw5qeDzCKNdwKn-23" target="aYM6xtdw5qeDzCKNdwKn-32" edge="1">
          <mxGeometry relative="1" as="geometry" />
        </mxCell>
        <mxCell id="aYM6xtdw5qeDzCKNdwKn-23" value="SKM to SDSS color transform" style="rounded=1;whiteSpace=wrap;html=1;" parent="1" vertex="1">
          <mxGeometry x="375" y="420" width="100" height="60" as="geometry" />
        </mxCell>
        <mxCell id="aYM6xtdw5qeDzCKNdwKn-29" value="&lt;div&gt;Merge &lt;br&gt;&lt;/div&gt;&lt;div&gt;colors&lt;/div&gt;&lt;div&gt;&lt;br&gt;&lt;/div&gt;" style="triangle;whiteSpace=wrap;html=1;direction=south;" parent="1" vertex="1">
          <mxGeometry x="145" y="320" width="80" height="60" as="geometry" />
        </mxCell>
        <mxCell id="aYM6xtdw5qeDzCKNdwKn-32" value="&lt;div&gt;Merge&lt;/div&gt;&lt;div&gt;colors&lt;/div&gt;&lt;div&gt;&lt;br&gt;&lt;/div&gt;" style="triangle;whiteSpace=wrap;html=1;direction=south;" parent="1" vertex="1">
          <mxGeometry x="270" y="420" width="80" height="60" as="geometry" />
        </mxCell>
        <mxCell id="aYM6xtdw5qeDzCKNdwKn-35" value="SDSS NEOs" style="shape=hexagon;perimeter=hexagonPerimeter2;whiteSpace=wrap;html=1;fixedSize=1;" parent="1" vertex="1">
          <mxGeometry x="390" y="140" width="105" height="70" as="geometry" />
        </mxCell>
        <mxCell id="aYM6xtdw5qeDzCKNdwKn-37" value="SKM catalog individual colors" style="rounded=1;whiteSpace=wrap;html=1;" parent="1" vertex="1">
          <mxGeometry x="380" y="220" width="100" height="60" as="geometry" />
        </mxCell>
        <mxCell id="aYM6xtdw5qeDzCKNdwKn-38" value="SKM catalog photometry" style="rounded=1;whiteSpace=wrap;html=1;" parent="1" vertex="1">
          <mxGeometry x="495" y="220" width="100" height="60" as="geometry" />
        </mxCell>
        <mxCell id="aYM6xtdw5qeDzCKNdwKn-39" value="SKM catalog average colors" style="rounded=1;whiteSpace=wrap;html=1;" parent="1" vertex="1">
          <mxGeometry x="380" y="320" width="100" height="60" as="geometry" />
        </mxCell>
        <mxCell id="aYM6xtdw5qeDzCKNdwKn-40" value="SKM catalog computed colors" style="rounded=1;whiteSpace=wrap;html=1;" parent="1" vertex="1">
          <mxGeometry x="495" y="320" width="100" height="60" as="geometry" />
        </mxCell>
        <mxCell id="aYM6xtdw5qeDzCKNdwKn-52" value="" style="edgeStyle=orthogonalEdgeStyle;rounded=0;orthogonalLoop=1;jettySize=auto;html=1;entryX=0.5;entryY=0;entryDx=0;entryDy=0;" parent="1" source="aYM6xtdw5qeDzCKNdwKn-41" target="aYM6xtdw5qeDzCKNdwKn-42" edge="1">
          <mxGeometry relative="1" as="geometry" />
        </mxCell>
        <mxCell id="aYM6xtdw5qeDzCKNdwKn-41" value="GAIA NEOs catalog" style="shape=hexagon;perimeter=hexagonPerimeter2;whiteSpace=wrap;html=1;fixedSize=1;" parent="1" vertex="1">
          <mxGeometry x="670" y="140" width="105" height="70" as="geometry" />
        </mxCell>
        <mxCell id="aYM6xtdw5qeDzCKNdwKn-56" value="" style="edgeStyle=orthogonalEdgeStyle;rounded=0;orthogonalLoop=1;jettySize=auto;html=1;entryX=0;entryY=0.5;entryDx=0;entryDy=0;" parent="1" source="aYM6xtdw5qeDzCKNdwKn-42" target="aYM6xtdw5qeDzCKNdwKn-54" edge="1">
          <mxGeometry relative="1" as="geometry" />
        </mxCell>
        <mxCell id="aYM6xtdw5qeDzCKNdwKn-42" value="&lt;div&gt;GAIA &lt;br&gt;&lt;/div&gt;&lt;div&gt;reflectance&lt;/div&gt;" style="rounded=1;whiteSpace=wrap;html=1;" parent="1" vertex="1">
          <mxGeometry x="620" y="240" width="100" height="60" as="geometry" />
        </mxCell>
        <mxCell id="aYM6xtdw5qeDzCKNdwKn-55" value="" style="edgeStyle=orthogonalEdgeStyle;rounded=0;orthogonalLoop=1;jettySize=auto;html=1;entryX=1;entryY=0.5;entryDx=0;entryDy=0;" parent="1" source="aYM6xtdw5qeDzCKNdwKn-43" target="aYM6xtdw5qeDzCKNdwKn-54" edge="1">
          <mxGeometry relative="1" as="geometry" />
        </mxCell>
        <mxCell id="aYM6xtdw5qeDzCKNdwKn-43" value="SDSS filters response" style="rounded=1;whiteSpace=wrap;html=1;fontStyle=0" parent="1" vertex="1">
          <mxGeometry x="730" y="240" width="100" height="60" as="geometry" />
        </mxCell>
        <mxCell id="aYM6xtdw5qeDzCKNdwKn-54" value="GAIA colors" style="rounded=1;whiteSpace=wrap;html=1;" parent="1" vertex="1">
          <mxGeometry x="680" y="320" width="100" height="60" as="geometry" />
        </mxCell>
      </root>
    </mxGraphModel>
  </diagram>
</mxfile>
